<svg width="43" height="38" viewBox="0 0 43 38" fill="none" xmlns="http://www.w3.org/2000/svg">
<circle cx="21.4997" cy="8.8326" r="7.3102" stroke="white" stroke-width="1.5" stroke-linecap="round"/>
<path d="M25.7359 4.50582C26.326 3.4838 27.2059 2.6597 28.2643 2.13774C29.3227 1.61579 30.5122 1.41941 31.6822 1.57345C32.8522 1.72748 33.9503 2.22502 34.8376 3.00313C35.7248 3.78124 36.3614 4.80499 36.6669 5.9449C36.9723 7.08482 36.9329 8.28971 36.5535 9.40721C36.1742 10.5247 35.472 11.5046 34.5357 12.223C33.5995 12.9415 32.4712 13.3661 31.2936 13.4433C30.116 13.5205 28.942 13.2467 27.9199 12.6567" stroke="white" stroke-width="1.5"/>
<path d="M17.2641 4.50582C16.674 3.4838 15.7941 2.6597 14.7357 2.13774C13.6773 1.61579 12.4878 1.41941 11.3178 1.57345C10.1478 1.72748 9.04971 2.22502 8.16244 3.00313C7.27517 3.78124 6.63857 4.80499 6.33313 5.9449C6.02769 7.08482 6.06713 8.28971 6.44647 9.40721C6.82581 10.5247 7.52801 11.5046 8.46427 12.223C9.40053 12.9415 10.5288 13.3661 11.7064 13.4433C12.884 13.5205 14.058 13.2467 15.0801 12.6567" stroke="white" stroke-width="1.5"/>
<path d="M21.4997 20.9231C34.0428 20.9231 35.939 32.5378 36.2257 36.0496C36.2706 36.6001 35.829 37.0435 35.2767 37.0435H7.72266C7.17037 37.0435 6.72878 36.6001 6.77371 36.0496C7.06038 32.5378 8.95661 20.9231 21.4997 20.9231Z" stroke="white" stroke-width="1.5" stroke-linecap="round"/>
<path d="M41.4924 30.5831L40.7535 30.7117L41.4924 30.5831ZM24.4215 21.1538L23.8676 20.6481L22.9369 21.6675L24.2986 21.8937L24.4215 21.1538ZM35.4226 31.6699L34.7021 31.8783L34.8588 32.4199H35.4226V31.6699ZM30.9044 18.9862C34.4267 18.9862 36.7277 21.0404 38.2563 23.5958C39.7938 26.1661 40.4811 29.1467 40.7535 30.7117L42.2313 30.4544C41.9472 28.8223 41.2207 25.6296 39.5436 22.8257C37.8574 20.0069 35.1427 17.4862 30.9044 17.4862V18.9862ZM24.9754 21.6595C26.4119 20.0861 28.3204 18.9862 30.9044 18.9862V17.4862C27.8285 17.4862 25.5372 18.8196 23.8676 20.6481L24.9754 21.6595ZM24.2986 21.8937C30.8061 22.9746 33.539 27.858 34.7021 31.8783L36.143 31.4615C34.9063 27.1867 31.8761 21.6318 24.5444 20.414L24.2986 21.8937ZM40.5462 30.9199H35.4226V32.4199H40.5462V30.9199ZM40.7535 30.7117C40.7635 30.7692 40.7481 30.8134 40.7166 30.8491C40.6827 30.8875 40.6253 30.9199 40.5462 30.9199V32.4199C41.5671 32.4199 42.4187 31.5313 42.2313 30.4544L40.7535 30.7117Z" fill="white"/>
<path d="M18.5788 21.1539L18.7017 21.8937L20.0632 21.6674L19.1326 20.6482L18.5788 21.1539ZM1.50784 30.5832L0.768954 30.4545L1.50784 30.5832ZM7.57909 31.67V32.42H8.14287L8.29955 31.8784L7.57909 31.67ZM12.0959 18.9863C14.6799 18.9863 16.5884 20.0862 18.0249 21.6596L19.1326 20.6482C17.4631 18.8196 15.1718 17.4863 12.0959 17.4863V18.9863ZM2.24673 30.7118C2.51918 29.1468 3.20645 26.1662 4.74399 23.5958C6.27255 21.0405 8.57362 18.9863 12.0959 18.9863V17.4863C7.85758 17.4863 5.1429 20.007 3.45672 22.8258C1.77953 25.6296 1.05309 28.8224 0.768954 30.4545L2.24673 30.7118ZM2.454 30.92C2.37494 30.92 2.31749 30.8876 2.28365 30.8492C2.25213 30.8135 2.23671 30.7693 2.24673 30.7118L0.768954 30.4545C0.581488 31.5313 1.43318 32.42 2.454 32.42V30.92ZM7.57909 30.92H2.454V32.42H7.57909V30.92ZM8.29955 31.8784C9.46259 27.8583 12.1951 22.9752 18.7017 21.8937L18.4558 20.414C11.1251 21.6325 8.09527 27.1871 6.85864 31.4616L8.29955 31.8784Z" fill="white"/>
</svg>
