<svg width="36" height="32" viewBox="0 0 36 32" fill="none" xmlns="http://www.w3.org/2000/svg">
<path d="M1 11.9764C1 10.0565 2.55646 8.5 4.47644 8.5V8.5C5.79322 8.5 6.99698 7.75603 7.58586 6.57827L9.26943 3.21115C9.80734 2.13531 10.0763 1.5974 10.5596 1.2987C11.0429 1 11.6443 1 12.8471 1H22.9029C24.1057 1 24.7071 1 25.1904 1.2987C25.6737 1.5974 25.9427 2.13531 26.4806 3.21115L28.1641 6.57827C28.753 7.75603 29.9568 8.5 31.2736 8.5V8.5C33.1935 8.5 34.75 10.0565 34.75 11.9764V25C34.75 27.8284 34.75 29.2426 33.8713 30.1213C32.9926 31 31.5784 31 28.75 31H7C4.17157 31 2.75736 31 1.87868 30.1213C1 29.2426 1 27.8284 1 25V11.9764Z" stroke="#9F9F9F" stroke-width="2"/>
<circle cx="17.875" cy="17.875" r="6.5" stroke="#9F9F9F" stroke-width="2"/>
</svg>
