<svg width="32" height="32" viewBox="0 0 32 32" fill="none" xmlns="http://www.w3.org/2000/svg">
<mask id="mask0_1546_13593" style="mask-type:alpha" maskUnits="userSpaceOnUse" x="0" y="0" width="32" height="32">
<path d="M1 9C1 5.22876 1 3.34315 2.17157 2.17157C3.34315 1 5.22876 1 9 1H23C26.7712 1 28.6569 1 29.8284 2.17157C31 3.34315 31 5.22876 31 9V23C31 26.7712 31 28.6569 29.8284 29.8284C28.6569 31 26.7712 31 23 31H9C5.22876 31 3.34315 31 2.17157 29.8284C1 28.6569 1 26.7712 1 23V9Z" fill="#273B4A" stroke="#9F9F9F" stroke-width="2"/>
</mask>
<g mask="url(#mask0_1546_13593)">
<path d="M6.82232 15.1777L3.51935 18.4806C2.27866 19.7213 1.65831 20.3417 1.35362 21.1357C1.04893 21.9297 1.09504 22.8058 1.18726 24.558L1.83333 36.8333H31V27.0629C31 25.3083 31 24.431 30.654 23.6541C30.308 22.8772 29.6559 22.2903 28.3517 21.1165L25.4875 18.5387C24.1519 17.3367 23.4841 16.7357 22.6866 16.7566C21.889 16.7776 21.2538 17.4129 19.9832 18.6835L18.0888 20.5778C17.1424 21.5242 16.6692 21.9974 16.1482 21.8971C15.6272 21.7968 15.3636 21.1817 14.8363 19.9515L13.3273 16.4304C12.2729 13.97 11.7456 12.7398 10.7036 12.5391C9.66154 12.3385 8.71513 13.2849 6.82232 15.1777Z" stroke="#9F9F9F" stroke-width="2"/>
</g>
<path d="M1 9C1 5.22876 1 3.34315 2.17157 2.17157C3.34315 1 5.22876 1 9 1H23C26.7712 1 28.6569 1 29.8284 2.17157C31 3.34315 31 5.22876 31 9V23C31 26.7712 31 28.6569 29.8284 29.8284C28.6569 31 26.7712 31 23 31H9C5.22876 31 3.34315 31 2.17157 29.8284C1 28.6569 1 26.7712 1 23V9Z" stroke="#9F9F9F" stroke-width="2"/>
<circle cx="23.3077" cy="8.69221" r="2.30769" stroke="#9F9F9F" stroke-width="2" stroke-linecap="round"/>
</svg>
