<svg width="45" height="41" viewBox="0 0 45 41" fill="none" xmlns="http://www.w3.org/2000/svg">
<rect y="0.926758" width="45" height="40" rx="4" fill="#095644"/>
<path fill-rule="evenodd" clip-rule="evenodd" d="M10.75 17.6768C10.75 13.9055 10.75 12.0199 11.9216 10.8483C13.0931 9.67676 14.9788 9.67676 18.75 9.67676H25.25C29.0212 9.67676 30.9069 9.67676 32.0784 10.8483C33.25 12.0199 33.25 13.9055 33.25 17.6768V24.1768C33.25 27.948 33.25 29.8336 32.0784 31.0052C30.9069 32.1768 29.0212 32.1768 25.25 32.1768H18.75C14.9788 32.1768 13.0931 32.1768 11.9216 31.0052C10.75 29.8336 10.75 27.948 10.75 24.1768V17.6768ZM29.5 15.3018C29.5 16.3373 28.6605 17.1768 27.625 17.1768C26.5895 17.1768 25.75 16.3373 25.75 15.3018C25.75 14.2662 26.5895 13.4268 27.625 13.4268C28.6605 13.4268 29.5 14.2662 29.5 15.3018ZM25 22.1768C25 23.8336 23.6569 25.1768 22 25.1768C20.3431 25.1768 19 23.8336 19 22.1768C19 20.5199 20.3431 19.1768 22 19.1768C23.6569 19.1768 25 20.5199 25 22.1768ZM27 22.1768C27 24.9382 24.7614 27.1768 22 27.1768C19.2386 27.1768 17 24.9382 17 22.1768C17 19.4153 19.2386 17.1768 22 17.1768C24.7614 17.1768 27 19.4153 27 22.1768Z" fill="white"/>
</svg>
