<svg width="25" height="28" viewBox="0 0 25 28" fill="none" xmlns="http://www.w3.org/2000/svg">
<path d="M12.8984 25.8075L13.5728 27.1473L13.5728 27.1473L12.8984 25.8075ZM12.1016 25.8075L12.7759 24.4676L12.7759 24.4676L12.1016 25.8075ZM21.5 12.5C21.5 15.8229 19.7531 18.5461 17.6195 20.6325C15.4899 22.715 13.1172 24.0181 12.2241 24.4676L13.5728 27.1473C14.597 26.6318 17.2751 25.1653 19.717 22.7774C22.1548 20.3935 24.5 16.9454 24.5 12.5H21.5ZM12.5 3.5C17.4706 3.5 21.5 7.52944 21.5 12.5H24.5C24.5 5.87258 19.1274 0.5 12.5 0.5V3.5ZM3.5 12.5C3.5 7.52944 7.52944 3.5 12.5 3.5V0.5C5.87258 0.5 0.5 5.87258 0.5 12.5H3.5ZM12.7759 24.4676C11.8828 24.0181 9.51009 22.715 7.38052 20.6325C5.24691 18.5461 3.5 15.8229 3.5 12.5H0.5C0.5 16.9454 2.8452 20.3935 5.28304 22.7774C7.72492 25.1653 10.403 26.6318 11.4272 27.1473L12.7759 24.4676ZM12.2241 24.4676C12.3939 24.3821 12.6061 24.3822 12.7759 24.4676L11.4272 27.1473C12.1059 27.4889 12.8941 27.4889 13.5728 27.1473L12.2241 24.4676ZM15.5 12.5C15.5 14.1569 14.1569 15.5 12.5 15.5V18.5C15.8137 18.5 18.5 15.8137 18.5 12.5H15.5ZM12.5 9.5C14.1569 9.5 15.5 10.8431 15.5 12.5H18.5C18.5 9.18629 15.8137 6.5 12.5 6.5V9.5ZM9.5 12.5C9.5 10.8431 10.8431 9.5 12.5 9.5V6.5C9.18629 6.5 6.5 9.18629 6.5 12.5H9.5ZM12.5 15.5C10.8431 15.5 9.5 14.1569 9.5 12.5H6.5C6.5 15.8137 9.18629 18.5 12.5 18.5V15.5Z" fill="white"/>
</svg>
