<svg width="40" height="42" fill="none" xmlns="http://www.w3.org/2000/svg"><path d="M28.143 9H36.6c.84 0 1.26 0 1.581.163a1.5 1.5 0 0 1 .656.656c.163.32.163.74.163 1.581v26.4c0 1.12 0 1.68-.218 2.108a2 2 0 0 1-.874.874C37.48 41 36.92 41 35.8 41h-4.457c-1.12 0-1.68 0-2.108-.218a2 2 0 0 1-.874-.874c-.218-.428-.218-.988-.218-2.108V4.2c0-1.12 0-1.68-.218-2.108a2 2 0 0 0-.874-.874C26.623 1 26.063 1 24.943 1H4.2c-1.12 0-1.68 0-2.108.218a2 2 0 0 0-.874.874C1 2.52 1 3.08 1 4.2v33.6c0 1.12 0 1.68.218 2.108a2 2 0 0 0 .874.874C2.52 41 3.08 41 4.2 41h29.371" stroke="#F3F3F3" stroke-width="2"/><path d="M28.143 9H36.6c.84 0 1.26 0 1.581.163a1.5 1.5 0 0 1 .656.656c.163.32.163.74.163 1.581v26.4c0 1.12 0 1.68-.218 2.108a2 2 0 0 1-.874.874C37.48 41 36.92 41 35.8 41h-4.457c-1.12 0-1.68 0-2.108-.218a2 2 0 0 1-.874-.874c-.218-.428-.218-.988-.218-2.108V4.2c0-1.12 0-1.68-.218-2.108a2 2 0 0 0-.874-.874C26.623 1 26.063 1 24.943 1H4.2c-1.12 0-1.68 0-2.108.218a2 2 0 0 0-.874.874C1 2.52 1 3.08 1 4.2v33.6c0 1.12 0 1.68.218 2.108a2 2 0 0 0 .874.874C2.52 41 3.08 41 4.2 41h29.371" stroke="#000" stroke-opacity=".2" stroke-width="2"/><path d="M21.4 6H8.6c-.56 0-.84 0-1.054.109a1 1 0 0 0-.437.437C7 6.76 7 7.04 7 7.6v4.8c0 .56 0 .84.109 1.054a1 1 0 0 0 .437.437C7.76 14 8.04 14 8.6 14h12.8c.56 0 .84 0 1.054-.109a1 1 0 0 0 .437-.437C23 13.24 23 12.96 23 12.4V7.6c0-.56 0-.84-.109-1.054a1 1 0 0 0-.437-.437C22.24 6 21.96 6 21.4 6Z" stroke="#F3F3F3" stroke-width="2"/><path d="M21.4 6H8.6c-.56 0-.84 0-1.054.109a1 1 0 0 0-.437.437C7 6.76 7 7.04 7 7.6v4.8c0 .56 0 .84.109 1.054a1 1 0 0 0 .437.437C7.76 14 8.04 14 8.6 14h12.8c.56 0 .84 0 1.054-.109a1 1 0 0 0 .437-.437C23 13.24 23 12.96 23 12.4V7.6c0-.56 0-.84-.109-1.054a1 1 0 0 0-.437-.437C22.24 6 21.96 6 21.4 6Z" stroke="#000" stroke-opacity=".2" stroke-width="2"/><path d="M7 19a1 1 0 1 0 0 2v-2Zm16 2a1 1 0 1 0 0-2v2ZM7 21h16v-2H7v2Z" fill="#F3F3F3"/><path d="M7 19a1 1 0 1 0 0 2v-2Zm16 2a1 1 0 1 0 0-2v2ZM7 21h16v-2H7v2Z" fill="#000" fill-opacity=".2"/><path d="M7 24a1 1 0 1 0 0 2v-2Zm16 2a1 1 0 1 0 0-2v2ZM7 26h16v-2H7v2Z" fill="#F3F3F3"/><path d="M7 24a1 1 0 1 0 0 2v-2Zm16 2a1 1 0 1 0 0-2v2ZM7 26h16v-2H7v2Z" fill="#000" fill-opacity=".2"/><path d="M7 29a1 1 0 1 0 0 2v-2Zm16 2a1 1 0 1 0 0-2v2ZM7 31h16v-2H7v2Z" fill="#F3F3F3"/><path d="M7 29a1 1 0 1 0 0 2v-2Zm16 2a1 1 0 1 0 0-2v2ZM7 31h16v-2H7v2Z" fill="#000" fill-opacity=".2"/><path d="M7 35a1 1 0 1 0 0 2v-2Zm11 2a1 1 0 1 0 0-2v2ZM7 37h11v-2H7v2Z" fill="#F3F3F3"/><path d="M7 35a1 1 0 1 0 0 2v-2Zm11 2a1 1 0 1 0 0-2v2ZM7 37h11v-2H7v2Z" fill="#000" fill-opacity=".2"/></svg>