<svg width="23" height="26" viewBox="0 0 23 26" fill="none" xmlns="http://www.w3.org/2000/svg">
<path d="M11.8984 24.8075L12.1232 25.2541L12.1232 25.2541L11.8984 24.8075ZM11.1016 24.8075L11.3263 24.3608L11.3263 24.3608L11.1016 24.8075ZM21.5 11.5C21.5 15.1971 19.5537 18.1619 17.3186 20.3475C15.085 22.5318 12.6105 23.8893 11.6737 24.3608L12.1232 25.2541C13.1037 24.7606 15.68 23.3486 18.0178 21.0625C20.3542 18.7777 22.5 15.5712 22.5 11.5H21.5ZM11.5 1.5C17.0228 1.5 21.5 5.97715 21.5 11.5H22.5C22.5 5.42487 17.5751 0.5 11.5 0.5V1.5ZM1.5 11.5C1.5 5.97715 5.97715 1.5 11.5 1.5V0.5C5.42487 0.5 0.5 5.42487 0.5 11.5H1.5ZM11.3263 24.3608C10.3895 23.8893 7.91503 22.5318 5.68136 20.3475C3.44634 18.1619 1.5 15.1971 1.5 11.5H0.5C0.5 15.5712 2.64577 18.7777 4.9822 21.0625C7.31998 23.3486 9.89626 24.7606 10.8768 25.2541L11.3263 24.3608ZM11.6737 24.3608C11.5606 24.4177 11.4394 24.4177 11.3263 24.3608L10.8768 25.2541C11.2726 25.4533 11.7274 25.4533 12.1232 25.2541L11.6737 24.3608ZM15.5 11.5C15.5 13.7091 13.7091 15.5 11.5 15.5V16.5C14.2614 16.5 16.5 14.2614 16.5 11.5H15.5ZM11.5 7.5C13.7091 7.5 15.5 9.29086 15.5 11.5H16.5C16.5 8.73858 14.2614 6.5 11.5 6.5V7.5ZM7.5 11.5C7.5 9.29086 9.29086 7.5 11.5 7.5V6.5C8.73858 6.5 6.5 8.73858 6.5 11.5H7.5ZM11.5 15.5C9.29086 15.5 7.5 13.7091 7.5 11.5H6.5C6.5 14.2614 8.73858 16.5 11.5 16.5V15.5Z" fill="#808080"/>
</svg>
