<svg width="356" height="340" fill="none" xmlns="http://www.w3.org/2000/svg"><path d="M117.13 231.19h-.093l-.153-.123-.246-.061v.43l.215.644.277.461.123-.338.061-.399.031-.43-.092-.307-.123.123Z" fill="#707070" stroke="#fff" stroke-width="1.5"/><path d="m184.026 289.494-.123-.092-.031-.153v-.184l-.031-.154-.276-.092-.646-.092-.307-.092-.369-.031-.308.092-.276.215-.185.307.369.614.584.307 1.476.092.184-.123.092-.245-.03-.246-.123-.123ZM228.141 277.336l-.184-.061-.185-.154-.307.092-.369.461-.061.552.584.215.276-.03.246-.154.185-.184.061-.276-.092-.307-.154-.154ZM223.868 279.608l-.43-.215-.369-.061h-.707l-2.368.552-1.906 1.29-.676.184-2.521-1.013-.43.276.123.185.276.245.308.307.153.369.093.951-.062.4-.276.307.061.153.062.154-.185.061-.184.153-.123.062-.185.031-.369-.031h-.184l-1.168.491-.369.307-.83.522-.308.123-.338.061-2.398.829-.984.553-.184-.061-.185.122-.86-.337-.185.215.185.675.092.092-.031.246-.123.368.092.522.093.246.123.122.184-.03.215-.062.185-.122.092-.154.061-.184h.185l.215.092.154.031.153-.092.339-.215.799-.215 1.107-.154.307-.153.615-.492 1.045-.46.953-.706.4-.215.338-.062.861.123h.338l.338-.215.338-.307 1.199-.644.461.399.431.399.369.184.553-.307.892-.921.153-.092.154-.184.646-.369.153-.184.123-.276.738-.799.215-.368.4-.952.4-.368 1.137-.307.554-.369-.123-.368-.4-.338ZM225.835 281.727l-.461.215-.276.368-.062.583.338.154.677-.246.553-.491-.092-.675-.677.092ZM171.329 283.016l-1.353-.123-1.537-.491-.154.031-.153.061-.123.031-.092.092.215.184.553.491.246.185.307.153 1.046.184h.338l.369-.184.215-.061.646.061.276-.061-.399-.369-.4-.184ZM192.695 295.236l.4-.799-.062-.153-.092-.123-.123-.092-.123-.061-.154-.185-.184-.061-.154.092-.123.154-.061.245v.215l.061.215v.276l.123.123.184.123.216.061.092-.03ZM176.739 285.994l-.184-.061h-.338l-.154.245.184.246.308.184.307.031.246-.246-.153-.307-.216-.092ZM217.32 286.178l-.185.031-.276.246-.215.46-.062.492.307.184.369-.246.246-.43-.03-.522-.154-.215ZM193.064 302.144l-.43.123-.216.153.062.246.277.123.246.061.184-.154-.031-.368-.092-.184Z" fill="#D8D8D8" stroke="#fff" stroke-width="1.5"/><path d="m225.251 44.12.461 2.333v2.579l-1.844 1.535-.308 2.58-.03.06c-.093.093-2.029 2.64-2.798 3.408-.584.584-.707 2.856-.707 3.685v.245h-1.383l.123 2.303h1.168c.799 0 .861 1.597.861 2.088 0 .982-.246 1.75-.83 2.456-.462.583-.431 1.505-.431 2.303v.46c0 .123.031.307.123.338.185.092.584-.092.861-.368.492-.492 2.89-1.474 3.136-1.597l.246-.092.369 1.32c.061.154.645 1.382 1.168 1.904.584.583.891 1.627.953 1.903.184.215 1.137 1.136 2.428 1.26.185.03.369.03.523.03v-.062c.031-.061.83-1.78 2.736-2.579 1.814-.767 5.319-2.425 5.38-2.456l.123-.061.092.061s1.23.737 2.706 1.044c.553.123 1.168.276 1.813.43 1.199.307 2.429.645 3.198.645 1.045 0 1.844.767 2.521 1.381.184.184.369.369.553.492.307.245.953.43 1.599.583.953.245 1.813.491 2.121 1.013.399.675 1.568 1.105 2.429 1.105.799 0 2.213-.337 2.428-.706.031-.03.031-.092 0-.153-.492-.799-.645-3.224-.645-3.316-.123-.614.03-1.996 1.383-2.518 1.291-.522 2.121-1.136 2.336-1.29.093-.337.216-.92.123-1.166-.061-.184-.461-.338-.799-.491-.215-.092-.461-.184-.645-.307-.339-.215-.831-.952-.8-1.627.031-.461.246-.83.677-1.075.614-.338 1.875-1.075 1.875-1.627 0-.614.154-3.285.154-3.378v-5.311l-1.199-.154-.308-.122-.307-.246-.092-.246v-.276l-.062-.4-.061-.153-.277-.49-.031-.154.062-.154v-.154l-.154-.153-.308-.123-.276-.061-.615-.062-1.168-.245-2.829-1.29-.645-.153-.277.03-.307.062-.308.03-.246-.122-.123-.123-.153-.307-.123-.123-.154-.03-.307.06h-.031l-.123-.03-.215-.123-.216-.184-.246-.153h-.276l-.277.061-.861.03-.922-.245-.307-.03-.308.03-.277.092-.276.03-2.613-.95-.431-.584.338-1.106.062-.368-.092-.368-.4-.492-.215-.644-.584-.584-.215-.307-.308-.737-.43-.644-.062-.185v-.153l-.061-.154-.185-.122-.399-.123h-.308l-.307.153-.215.215-.369.584-.216.214-.584.369-.246.184-.307.184-.369-.061-.738-.276-2.705-.461-.277-.092-.615-.338-.707-.522-.153-.03-.861.153-1.445.583-.308.031-.215-.092-.246-.184-.246-.123-.307-.061-1.66.03-.646.246-.615.399-1.137.952-.092.307.492.522.061.368-.061.4-.031.06c.092-.06.154.031.184.124ZM97.761 99.63c-.43-.276-.983-.553-1.629-.276-.43.184-.891.153-1.23-.093a1.04 1.04 0 0 1-.46-.89v-.246c.03-.522.03-.951-.677-1.412-.892-.583-2.767-1.842-3.351-2.15-.461-.214-1.845-.552-2.429-.675v.492c0 .276.154.49.338.706.216.276.492.614.246 1.074-.215.43-.645.737-1.106.83-.062 0-.154.03-.215.03-.37 0-.738-.153-1.046-.46-.43-.43-.891-.277-1.445-.123-.276.092-.584.184-.86.184-.43 0-.738-.246-1.107-.522-.4-.307-.83-.645-1.537-.706-1.415-.154-2.49-.768-2.552-.798l-.03-.031-.032-.03c-.03-.032-.153-.246-.368-.523-.4.369-1.691 1.505-2.122 1.934-.615.615-3.012.89-3.842.89-.062 0-.123 0-.154.032-.092.153.154.798.338 1.166.184.43.338.83.338 1.136 0 .43.707 1.106 1.168 1.566.216.215.4.399.523.553.154.184.369.399.584.583.37.307.738.645.86 1.013.124.338 1.046 1.32 1.6 1.873l.061.062v2.548c0 .645-.092 1.781-.646 1.781h-.184c-.369.03-.953.061-2.306-.123-1.352-.184-2.182.829-2.305 1.013a.583.583 0 0 1 .215.338c.03.276-.092.522-.523.951-.707.707-.984 1.843-.738 2.334.123.276.185.706.246 1.197.062.553.154 1.351.43 1.474.616.307 1.077.461 1.938.583.953.154 1.875.614 1.906.645l.123.062v.122c0 .062.153 1.566.153 2.027 0 .522-.984 1.535-1.291 1.842l-1.23 1.381c-.03.031-.645.676-.276 1.259.43.706.676.952 1.66.952 1.199 0 1.875.368 2.06 1.105.153.584.43 1.75 1.29 2.334.83.552 2.644 1.259 2.86 1.351.4.092 1.506.215 1.967-.123.123-.092.185-.184.185-.307.184-1.259 1.106-1.413 1.906-1.413.215 0 .43-.03.707-.061.738-.061 1.506-.153 1.814.307.153.215.43.583.676.921.277.338.553.706.707.921.246.338 1.353.645 1.722.522.153-.061.4-.153.645-.245.492-.185 1.107-.43 1.507-.522.4-.092 1.168-.645 1.322-1.167a.478.478 0 0 0-.062-.461c-.645-.798-1.537-3.346-1.568-3.438l-.768-2.61c-.031-.061-.338-1.504.338-2.364.215-.276.338-.614.43-.921.185-.491.338-1.013.953-1.013.677 0 .861-.768.861-1.167 0-.583-.154-2.579-.154-2.579v-.061c.031-.123.83-3.255 2.675-3.255 1.506 0 2.398-.368 2.398-1.013 0-.583.307-1.474.553-2.211.093-.307.185-.583.246-.767.031-.123.092-.277.123-.43.123-.369.277-.829.154-1.075a.475.475 0 0 0-.308-.215c-.614-.215-1.352-.522-1.537-1.074-.092-.307-.03-.614.185-.983.46-.706 1.045-1.903 1.26-2.364a7.367 7.367 0 0 1-.522-.245c-.554-.369-1.322-.737-1.66-.952Z" fill="#FA0" stroke="#fff" stroke-width="1.5"/><path d="M180.982 73.44c.092.43.738.799.953.922 0 0 1.844.767 2.736 1.074.307.092.553.338.707.676.246.583.184 1.381.031 1.903 1.076-.03 4.304-.123 5.072 0 .8.123 3.198-.583 4.12-1.32.276-.215.492-.46.676-.675.461-.492.892-.983 1.568-.553.215.123.523.153.861.061.645-.184 1.322-.767 1.752-1.504.861-1.566 2.89-2.119 4.366-2.119h3.935c.369-.245 2.152-1.535 2.551-1.811.338-.215 1.414-1.474 1.876-2.026-.062-.614-.216-3.194.922-3.654.83-.368 1.23-.952 1.23-1.78 0-.953 1.168-1.659 1.66-1.904.615-.307 1.691-.614 1.721-.645h1.845c0-.768.123-3.07.83-3.776.676-.676 2.429-2.948 2.705-3.316l.308-2.64 1.844-1.536v-2.333l-.43-2.21-.185.122-1.537.245-.276-.03-.554-.215-.092-.062-.738-.06-2.582.429-.277-.03-.246-.062-.492-.246-.307-.092h-.922l-.246-.092-.707-.368-1.107-.246h-.584l-3.536.706-1.168.061-.43.154-1.322.952-.4.184-.369.276-.184.031-.83.276-.4.184-.154.338-.215.092-1.045.185-.338.092-.154.184-.215.368-.123.154-.185.092-.246.03-.246.123-.092.277-.123.215-.861.89-2.705 1.72-.523.552-.245.368-.093.338-.061.4-.308.675.031.43.062.122.215.185.061.153.031.123-.031.522-.061.307-.246.522-.031.338-.092.153-.461.338-.861.522-.215.215-.369.123-.431.46-.276.123h-.4l-1.076-.215-.43.061-3.044 1.658-.645.184h-.4l-.4-.06-.399.03-.339.215-.307.307-.338.123h-.369l-4.888-.4.154 1.812.092.307.553 1.382.4 1.78.277.799.43.614-.4.737-.061.306.338.123.277.154.092.338v2.21l-.123.338-.215.184-2.275.583-.308-.092-.153-.092c.03.03.03.062.03.123.031.03.031 1.228.185 1.811ZM350.343 275.463l-.276-.399-.185-.215-.154-.123-.461-.153-.184-.154-.492-.43-.215-.092h-.185l-.983.307-.216.031-.307-.031h-.492l-.922.307-.492.092-1.045.215-.492.031-.554-.123-.43-.245-.154-.062-.123.031-.246.153h-.123l-.276-.153-.769-.737h.277l.184-.153.092-.246.093-.307.03-.338-.092-.215-.338-.46.922-2.242.123-.89-.615-7.092-.799-3.5.554-4.575-.093-.768-.399-.245-2.952.614-.369-.215-1.137-1.29-.246-.46-.123-.369-.123-.214-.184-.123-.308-.092-.307-.185-.185-.245-.153-.307-.185-.246-.522-.276-2.368-.491-1.506-.707-.553-.122-1.199-.092-.554-.185-.861-.522-1.076-.307-.338-.184-.553-.675-1.138-1.106-.768-1.013-1.845-1.75-.522-.645-.523-1.166-.523-.614-.092-.307-.031-.369-.123-.399-.737-1.811-.154-.215-.215-.185-.246-.092-.123-.122-.031-.123.031-.123.123-.154.184-.153.062-.215-.062-.184-.184-.123-.308-.154-.123-.307-.092-.368-.184-.307-.215-.092-.154-.031-.154-.061-.184-.215-.093-.246-.061-.522-.062-.245-.215-.369-.584-.645-.184-.429v-.4l.215-.767.031-.399-.154-.553-.307-.215-.369-.153-.369-.307-5.411-6.663-2.398-2.916 2.398-2.887 8.7-10.592 5.81-7.154.308-.337-.031-.123h-.031l.031-.399.031-.154.123-.061-.062-1.443-.092-.246.338-.675.123-.461v-.399l-.061-.43-.246-.706-.308-.675-.03-.215-.031-.614-.154-.492-.492-.798-.184-.43v-.43l.123-.89-.123-.399-.646-.829-.338-.276-.461-.185-9.653-1.443-4.427-.644c0 .061 0 .092-.031.153-.061.092-1.322 2.487-1.967 3.132-.646.645-1.876 1.228-2.613 1.228-.339 0-1.63.368-2.798.706-.984.276-1.998.583-2.582.706a.642.642 0 0 0-.492.338c-.4.645-.154 1.996.03 2.702.308 1.105-1.106 2.118-1.383 2.302-.492.308-2.582.553-3.751.553-.369 0-.645.062-.768.215-.154.154-.154.43-.154.706v.123c0 .522-.246 2.395-.246 2.487l-.031.123-.123.061-8.392 3.439c-.062.645-.277 2.548-.554 2.917-.184.337-.338 3.837-.338 4.636 0 .245.215 3.53.4 6.693.246 3.746.492 7.645.492 7.982 0 .584.399 3.685.768 4.544.769 1.812.923 2.886.461 3.347-.522.522-.86 1.259-.645 1.474.399.399.738 2.579.83 3.224v.061c-.062 2.057 0 5.526.338 6.048.246.369.277.676.154.921-.215.4-.8.461-1.107.461-.615 0-5.165-.338-5.872-.368-.246.153-.984.675-1.783 1.013-.215.092-.369.215-.4.307-.03.092.062.215.062.215l1.353 1.627v3.316c0 .952-.923 1.136-2.306 1.136-1.168 0-1.629 1.688-1.783 2.302-.031.093-.062.185-.062.246-.092.307-.276 4.544-.369 7.154l-1.045 9.425c0 .031-.246 1.536-.246 2.027 0 .276.4 1.013.677 1.566.184.368.368.675.461.921.276.706.553 1.535.123 2.364-.4.798-.461.982-.369 1.381.123.461.953 1.658 1.752 1.75 1.107.154 1.107 1.965 1.107 2.549 0 .491.246 2.917.246 2.947l.03.215-.215.031c-.03 0-1.045.123-1.568.123-.184 0-.399.153-.645.337a2.396 2.396 0 0 1-.554.338c.062.399.523 2.948.861 3.623.154.307.523 1.197.953 2.211.584 1.412 1.322 3.193 1.63 3.715.584 1.043.246 1.412-.584 1.965-.154.092-.185.184-.185.245 0 .276.369.706.953 1.167.553.399 1.845 2.241 2.121 2.794l.093.184c.246.491.584 1.136.584 1.996 0 .89-.246 5.987-.246 6.202l.338-.062.523-.061 2.551-.952.83-.031.769.277 1.076 1.136.738.337h.707l3.197-.337.307.153.123.369.062.122.707.676.123-.031.092-.153.123-.093 1.476-.429.768-.031.707.184h.093l.184-.031.092.031v.092l-.03.246.03.092.185.276.153.092.615.093.185.092.369.245.123-.123.092-.399.031-.153-.062-.092v-.123l.185-.184.092-.062.492-.092.645-.031.338.031.246.154-.061.061-.185.338.4.307.922.153.369.215 1.046 1.013.215.062h.276l-.092-.307-.399-.706v-.215l-.062-.154-.092-.03h-.154l-.184-.123h-.123l-.093-.062-.061-.43-.062-.122v-.154l.154-.245.277-.338.154-.307.307-.184 1.26-.4.308-.03.307.03.277.185.676.706.062.184v1.167l.061.307.431.675-.277.246.277.184 1.721.215 2.49.645 2.952.522 3.013.951.061.093.123.491.061.123.677.276 3.566.89-.215-.245-.277-.185.984-.307.246-.153.154-.154.03-.061v-.123l.062-.215.307-.399.092-.215-.153-.184-.185-.092-.43-.154.399-.307h.308l.277.123.399.062-.123-.123-.153-.215-.123-.092.061-.123.031-.368.061-.093.154-.122.092.061.062.123.307.245.062.338.092.307.584-1.75.4-6.969.061-.307.123-.185.246-.276.123-.184.061-.737-.215-.829-.092-.767.369-.584.4-.092h.338l.307-.061.277-.369.123-.368.891-7 .154-.645.246-.584.43-.337 2.183-.676.646-.43.338-.184.369-.123.738-.122.153-.215.093-.522.276-.522.707.092.8.307.645.092.4-.215v-.307l-.184-.399-.093-.491.123-.246.554-.583.184-.369v-.153l-.061-.092-.062-.154.031-.184.123-.154.154-.122.338-.154.153-.061.216-.184.153-.093h.554l.184-.03.123-.092.123-.307.154-.093.184-.061 2.982-.338.4-.122.123-.123.154-.184.153-.093.185.031.215.123h.154l.553-.123.154-.061.123-.092.123-.092.184-.369.154-.184.184-.062 4.274.123.707.123h.707l.522-.123.154.031.154.061.154.092.122.093h.185l.4-.4.184-.859.154-3.07.123-.338.307-.184.738-.123.277-.246.03-.399-.153-.338-.215-.337-.154-.4-.092-2.394.03-.246.062-.215.215-.276.061-.215.185-.338.369-.184h.369l.338.123-.523-1.382Z" fill="#FA0" stroke="#fff" stroke-width="1.5"/><path d="M120.696 69.726c0 .03-.923 1.995-1.23 2.763-.277.675-1.568 1.842-2.06 2.241.369.123.677.184.923.184.768 0 2.582 1.228 4.734 2.671.676.461 1.23.86 1.537 1.014 1.015.583 1.168 2.425 1.199 2.978.584.307 3.074 1.566 3.751 2.118.676.553 3.012 1.106 3.75 1.29l.154.03c.584.154 2.367.308 3.166.308.277 0 .585.06.923.153h.03a.23.23 0 0 1 .123.061 6.013 6.013 0 0 1 1.845 1.075c.523.43 1.506.921 2.367 1.35.646.308 1.168.584 1.445.8.707.521 1.322 1.504 1.629 2.578.154.553.769.798 1.445 1.044.461.184.953.368 1.384.675.861.615 1.383.584 1.998.584h.338c.677 0 1.875-.276 2.644-.737.799-.491 2.121-1.535 2.521-2.364.123-.215.338-.4.676-.491 1.169-.338 3.443.153 4.089.552.461.277 1.783.553 2.89.799.707.153 1.322.276 1.691.399.092.03.215.061.338.123.031-.031.031-.062.092-.093.092-.061 2.214-1.258 3.351-1.258.615 0 1.015-.584 1.445-1.198.215-.307.43-.614.707-.89.83-.83 1.814-1.29 2.767-1.29.83 0 3.013-.122 3.443-.153.492-.46 3.843-3.377 4.55-3.96.492-.4.523-.922.092-1.536-.246-.368-.061-.952.031-1.197.184-.46.553-1.044 1.014-1.167.984-.246 2.091-.675 2.306-1.105.185-.4.338-1.29.092-1.873-.092-.215-.215-.369-.399-.43-.923-.307-2.706-1.044-2.798-1.075-.123-.061-1.045-.522-1.199-1.228-.154-.644-.154-1.842-.154-1.903 0-.092.062-.154.123-.215l-2.551-.246h-.092l-.738-.307-.431-.552.154-.031.369-.092-.615.03-.246-.092-.123-.245h.922l1.046.153.276-.061.492-.184.277-.031.492.123.246.03.215-.092.83-.245 1.291-.154 1.015-.338.031-.798-.861.706-1.291.277-7.102.399-.799.123-5.964 1.258-2.982.86-3.075.89-3.074.584-3.197.583-3.105.706-2.952 1.044-3.35.4-3.198-.86-3.32-.584-3.197-.86-5.042-.951-1.506-.645-2.583-1.75-2.859-1.443-.246-.246-.553-.522-.246-.122-.369-.062-.861-.552v.03l-.891 2.242Z" fill="#FA0" stroke="#fff" stroke-width="1.5"/><path d="M97.177 73.072a1.424 1.424 0 0 1-.922-.583c-.123-.184-.645-.246-.891-.277-.308-.03-.861-.245-1.169-.368l-.737 1.013c-.093.307-.646 1.873-.954 2.334-.215.337 0 1.412.462 2.364.369.767 1.445.951 2.305 1.074l.154.031c.676.123 1.26.4 1.845.645.215.092.43.215.645.276.676.276 1.107.768 1.353 1.535l.092.246c.215.583.553 1.566.553 2.149 0 .43-.307 1.474-.676 2.702a8.677 8.677 0 0 0-.246.86c-.184.767-1.568 1.412-2.797 1.565-.769.092-.953.522-1.2 1.013-.092.215-.184.4-.338.584a.989.989 0 0 1-.707.399c-.676.092-1.414-.4-1.936-.829-.615-.491-.984-.737-1.2-.829l-2.336 2.333c-.369.369-.492 1.32-.522 2.119.553.123 2.09.491 2.613.737.615.307 2.428 1.504 3.412 2.149.922.614.892 1.259.86 1.811v.215c0 .215.093.4.278.522.215.154.492.154.799.03.86-.337 1.568 0 2.06.339.307.215 1.076.583 1.721.859.277.123.554.246.738.338.523.246 1.353.154 2.306 0l.154-.031c.953-.122 1.352-1.105 1.352-1.473 0-.86 3.105-1.014 3.167-1.014.83 0 2.213.154 3.474.615.891.337 3.381.06 4.457-.093-.369-.276-.891-.706-1.229-.86-.369-.184-.585-.552-.585-.982 0-.43.216-.798.585-.982.461-.215.799-1.72.799-2.395 0-.522.645-1.013 1.322-1.535a8.68 8.68 0 0 0 .738-.614c.153-.154.399-.491.676-.86.707-.982 1.691-2.333 2.644-2.579a5.228 5.228 0 0 0 1.875-.86c.092-.153.277-.49.185-.767a.726.726 0 0 0-.4-.4l-.154-.06c-1.906-.799-2.89-1.32-3.043-1.75-.031-.062-.062-.154-.123-.277-.246-.522-.584-1.29-.277-1.842.154-.276.461-.43.892-.491 1.567-.154 2.982-.154 3.627 0 .461.122 1.876.245 2.46.276-.031-.737-.246-2.057-.953-2.456-.339-.184-.892-.584-1.568-1.044-1.414-.983-3.782-2.61-4.458-2.61-.553 0-1.353-.307-2.152-.614-.707-.276-1.66-.614-1.906-.491a10.54 10.54 0 0 0-.523.276c-.922.491-2.459 1.32-3.228 1.443-.953.154-3.658.154-4.795.154-.585 0-1.169-.246-1.691-.492-.523-.215-1.046-.43-1.537-.43-1.107 0-2.429-.767-2.952-1.473-.123-.154-.338-.43-.615-.706h-.891c-.03.061-.553.092-.892.061Z" fill="#FA0" stroke="#fff" stroke-width="1.5"/><path d="M119.281 81.7c-.276.03-.461.122-.553.245-.184.338.123 1.044.307 1.412.062.123.123.246.123.338.123.338 2.06 1.167 2.798 1.474l.154.061c.369.154.584.4.676.706.154.584-.246 1.167-.277 1.198l-.03.03c-.031.031-.83.645-2.091.952-.799.184-1.722 1.474-2.398 2.395-.277.4-.522.737-.738.921-.215.215-.492.43-.799.645-.492.368-1.137.89-1.137 1.166 0 .492-.277 2.426-1.046 2.825-.215.092-.338.307-.338.553 0 .245.123.46.338.552.554.277 1.414.983 1.66 1.198.216 0 .646-.03 1.169-.062-.062-.03-.093-.122-.093-.184 0-.092.185-2.333 1.599-2.517.215-.031.461-.062.707-.093 1.168-.153 2.736-.368 4.396-.368 1.353 0 2.613-.061 3.443-.123.4-.03.708-.03.861-.03.185 0 1.168-.031 1.814-.83.246-.306.369-.644.523-.982.184-.46.399-.952.891-1.35.154-.124.277-.246.431-.37.584-.521 1.199-1.043 2.059-.92.123.03.216.03.339.061 1.076.215 1.783.276 1.998-.645.184-.89.461-1.29.645-1.596.123-.184.216-.338.277-.553.123-.46.246-1.474.277-1.903a2.746 2.746 0 0 0-.677-.093c-.768 0-2.643-.153-3.289-.306l-.154-.031c-1.352-.338-3.258-.86-3.935-1.382-.707-.552-3.412-1.934-3.75-2.088-.308-.03-2.183-.153-2.767-.307-.554-.153-1.906-.153-3.413 0ZM64.529 79.366c.184-.061.338-.215.43-.46a.86.86 0 0 1 .492-.492c.615-.215 1.506.246 2.367.706.308.154.584.307.83.4 1.168.49 2.152.736 2.982.736.892 0 1.414.093 1.537.123.246.092.461.768.461.798.031.123.154.43.246.614.031.093.093.185.093.216.03.06.03.122.03.552v.092c0 .246.031.553-.03.768-.031.153.092.583.153.675l.031.062c.062.122.523 1.166.215 1.842a.787.787 0 0 1-.522.46c-.861.277-.923.676-.923 1.014 0 .122-.03.276-.061.49-.092.461-.215 1.198.03 1.474a.4.4 0 0 0 .277.093h.461c.738-.031 1.015 0 1.169.798.153.829.307 1.197.86 1.197.708 0 1.63.123 2.03.706.276.4 1.168 1.689 1.352 1.935.215.122 1.168.583 2.337.706.83.092 1.352.491 1.783.798.307.246.553.43.83.43.215 0 .46-.062.737-.154.585-.184 1.292-.399 1.907.215.276.246.553.369.86.338a1.13 1.13 0 0 0 .769-.583c.092-.184.03-.307-.215-.584-.185-.245-.43-.552-.43-.982v-.829c.03-1.075.184-2.088.676-2.548l2.551-2.549.123.031c.031 0 .523.184 1.445.952.615.522 1.2.767 1.568.737.154-.031.307-.093.4-.215.123-.154.184-.338.276-.522.246-.522.554-1.136 1.568-1.259 1.26-.154 2.306-.768 2.429-1.197.03-.185.154-.522.246-.89.277-.86.645-2.18.645-2.58 0-.491-.338-1.474-.522-1.996l-.092-.245c-.216-.645-.554-1.013-1.107-1.228-.215-.092-.461-.184-.676-.307-.554-.246-1.107-.491-1.722-.614l-.154-.031c-.953-.153-2.152-.338-2.644-1.32-.4-.799-.86-2.242-.46-2.856.245-.368.737-1.75.89-2.24l.031-.062.954-1.32.153.061c.246.092.923.368 1.2.4.491.06.983.153 1.229.49a.99.99 0 0 0 .615.4c.215.03.645 0 .768 0h.462c-.708-.768-1.507-1.566-1.538-1.566l-.03-.031-.031-.03c-.43-1.014-1.322-3.01-1.66-3.47-.43-.584-3.566-3.715-3.812-3.96a1.624 1.624 0 0 1-.338-.277c-.523.338-1.66.522-2.122.245-.184-.122-.615-.153-.984-.153-.307-.03-.614-.03-.83-.123-.153-.061-.522.092-1.137.706a.705.705 0 0 1-.492.215 1.45 1.45 0 0 1-.523-.123c-.092-.03-.184-.06-.276-.092-.554-.123-.8-.675-.8-.982 0-.092-.123-.307-.215-.46l-.953-.277-.03-.092a2.18 2.18 0 0 0-.277-.522c-.062-.03-.492-.061-.861 0h-.092l-.738-.46c.061.122.03.245-.092.306-.154.062-1.384.737-1.783.83-.554.122-.984.337-1.107.521-.215.307-.953 1.198-1.875 1.413-.892.215-1.876 0-2.86-.645-.83-.553-2.09.4-2.274.583-.37.369-2.183 1.198-2.767 1.382a3.555 3.555 0 0 0-1.445.86c-.062.061-.123.184-.215.307-.308.522-.8 1.32-2.613 1.412-1.783.092-2.521 2.15-2.644 2.517.123.4.83 2.518 1.106 3.194.308.798 1.076 3.561 1.23 4.329.062.276.092.675.092 1.105.308.092.707.215 1.046.092ZM77.38 153.329c.706-.921 2.582-1.106 3.596-1.014 1.015.093 3.658.093 4.365 0 .923-.122 1.66.092 2.337.676.584.491 2.613.675 3.443.675.553 0 1.722.338 2.552.614.768.307 1.906.307 2.367.307h.277c.645 0 1.752-.03 2.336.338.676.461 1.107.89 1.414 1.535l.092.154c.123.245.339.645.585 1.105l.061-.061s1.015-.522 1.629-.921c.523-.338 1.814-.983 2.245-1.167a4.295 4.295 0 0 1-.185-1.136c-.061-.184-.307-.768-.307-1.167 0-.215.031-.614.061-1.044.031-.399.062-.798.062-1.013 0-.491.522-.952.584-1.013l.061-.061h.093c.03 0 1.629.092 2.643.092.923 0 1.169-.246 1.476-.553l.031-.031c0-.245-.738-.921-1.23-1.351-.369-.337-.523-.614-.492-.89.031-.399.431-.614.83-.829.154-.092.338-.184.492-.276.154-.123.308-.185.431-.277.43-.276.614-.399.83-1.044.153-.491.03-1.136-.093-1.565-.246.122-.645.337-.86.399-.123.03-.277.061-.462.061-.153 0-.338 0-.522-.031-.215 0-.461-.03-.707-.03-.769 0-.923-.829-.984-1.259-.031-.092-.031-.184-.061-.246-.093-.245-.246-.982-.308-1.258-.369-.185-1.66-.86-2.306-1.413-.645-.552-.584-1.504-.522-2.21 0-.154.03-.307.03-.43 0-.031 0-.062-.03-.092-.154-.154-.8-.123-1.23-.123-.154 0-.338.031-.461.031-.707 0-1.291 0-2.03-.338-.091-.031-.122-.031-.184-.031-.122.062-.245.43-.368.768a7.858 7.858 0 0 1-.37.982c-.614 1.198-2.367.461-2.459.43l-.061-.031-.031-.061c-.092-.123-.769-1.105-.769-1.781 0-.184 0-.583-1.014-.583-.738 0-1.353 0-3.105-.307-.369-.062-.83-.184-.922-.553-.123-.43.4-.829.922-1.259.184-.153.369-.276.492-.399.338-.337.307-.552.246-.89-.031-.184-.062-.399 0-.645.061-.399-.123-1.013-.246-1.351-.246.092-.492.184-.646.246a1.313 1.313 0 0 1-.369.061c-.645 0-1.598-.307-1.875-.767-.154-.215-.43-.584-.676-.921a20.204 20.204 0 0 1-.707-.921c-.154-.215-.861-.154-1.384-.093-.277.031-.522.062-.738.062-.799 0-1.352.184-1.475 1.044a.872.872 0 0 1-.37.614c-.706.491-2.182.215-2.366.184h-.031c-.092-.031-2.03-.798-2.952-1.412-.983-.676-1.321-1.965-1.475-2.579-.03-.185-.185-.737-1.63-.737-1.199 0-1.567-.369-2.029-1.198a1.187 1.187 0 0 1-.153-.89h-1.845l-.43-.246-.492.123-.892-.552c-.153.46-.307 1.013-.338 1.166-.03.184-.338 1.566-.8 1.965-.153.123-.399.399-.614.676-.307.368-.615.737-.86.89-.277.154-.77.737-1.015 1.044v.583c.092.277.184.584.246.645.123.092.46.491.553.645.092.123.43.767.553 1.044 0 .03.031.061.031.092a.346.346 0 0 1 .092.245c0 .031-.03.062-.03.062 0 .215 0 .399-.031.522.03.153.184.798.215 1.013 0 .031 0 .061.03.092.032.215.124.522-.122.921a2.348 2.348 0 0 1-.676.583 1.004 1.004 0 0 0-.185.123s-.061.092-.123.154c-.123.184-.553.737-.584.859-.03.277-.492.553-1.353.891-.645.245-1.629.245-1.906 0-.061-.031-.153-.062-.584.215-.338.215-.707.123-.922 0-.154.153-.369.337-.646.43-.276.092-.799.061-1.106.03a.613.613 0 0 1-.216.492c-.092.061-.338.337-.553.583.03.153.092.338.123.399.123.215-.03.583-.123.768l-.062.153-.645-.092c-.154 0-.615-.031-.86-.215a1.696 1.696 0 0 1-.247-.215c-.092-.061-.154-.153-.246-.184s-.522-.031-.83.031c-.061 0-.061.03-.123.215-.03.122-.061.245-.123.337-.061.092-.03.154.154.43.184.246.492.553.492.553l.646.614c.491.307 1.26.737 1.444.767.216.062.43.246.523.492a.625.625 0 0 1-.061.614c-.123.184-.093.215.092.399.092.092.707.276 1.23.368.368.092.614.215.676.338.092.092.707.583.891.706.185.123.4.246.584.583.031.031.062.093.062.123.123.246.184.338.338.338.246.031 1.138.399 2.183.86.307.122.522.215.615.276.307.123.615.491.707.645.184.061.553.215.707.307.184.153.645.798.707 1.044.061.153.215.276.338.337.03 0 .062.031.092.031.216.092.492.215.615.43.062.092.43.368.584.491.093.062.185.123.216.154.122.092.922.399 1.629.644l.768.093c.123.061.769.307.984.521.123.123.215.246.308.369.061.092.153.184.215.246.061.061.276.153.43.245.185.092.4.184.553.307 0 0 1.138.706 1.384 1.29.092.215.492.337.768.368.093-.153.954-.921 1.476-1.596ZM277.206 306.504c0-.737-.276-1.29-.522-1.781l-.092-.184c-.246-.492-1.507-2.272-1.999-2.61-.522-.399-1.168-.983-1.137-1.535 0-.184.061-.43.369-.614.707-.492.861-.614.43-1.382-.307-.553-1.014-2.241-1.66-3.746-.4-.951-.768-1.872-.922-2.179-.338-.707-.8-3.04-.892-3.654-.061 0-.092.031-.153.031h-.185c-.768 0-1.844-.614-2.705-1.136-.123-.062-.215-.123-.338-.185a2.202 2.202 0 0 1-.369-.215c-.892-.491-1.937-1.074-2.183-1.719a2.173 2.173 0 0 1-.154-.552c-.061-.369-.154-.707-.83-1.29-.984-.86-1.291-.829-2.244-.583-1.138.276-3.044-.553-3.689-1.075-.461-.368-1.015-.952-1.537-1.504-.246-.246-.461-.492-.677-.707-.492-.491-1.137-.46-2.121-.46h-.553c-1.353 0-1.568-.307-1.999-1.167-.368-.737-.83-1.32-1.936-1.811-1.046-.461-1.169-1.382-1.23-1.904-.031-.123-.031-.215-.062-.276-.092-.276-.768-1.136-1.998-1.259-1.383-.153-1.998-1.627-1.998-2.149 0-.154-.092-.737-.154-1.29-.123-.798-.246-1.688-.246-2.057v-.153c0-.614.031-1.198-.983-1.412-.431-.093-.615-.338-.677-.522-.276-.707.584-1.812.677-1.904.03-.031.922-.921 1.291-1.412.338-.461 1.475-.952 1.967-1.167-.123-.399-.338-1.29-.338-1.781 0-.153 0-.552-.676-.552-.123 0-.4-.031-.769-.062a25.322 25.322 0 0 0-2.982-.184c-1.844 0-3.197-2.947-3.197-3.715 0-.491-.492-2.886-.738-3.991l-4.796.368-.338 1.382c-.154.644-1.322 1.074-1.783 1.074-.184 0-.799.031-1.414.062-.646.03-1.23.061-1.445.061-1.199 0-2.091-.031-2.613-.123-.738-.123-1.876-1.105-2.736-1.811-.123-.092-.246-.215-.338-.276-.861-.707-1.507-1.965-1.753-2.549-.307-.737 0-4.667.123-5.158.092-.399.554-4.421.738-6.263l-.984.092c-.123.031-1.076.276-1.66.399-.492.092-1.537.645-2.275 1.013-.184.092-.338.184-.492.246-.369.184-.891.46-1.475.767-.707.369-1.445.768-1.999 1.044-1.229.614-2.213.461-2.982-.429-.492-.553-1.383-.615-1.906-.584.031.123.062.246.092.338.677.89 1.876 2.303 2.214 2.487.43.215 1.045.859 1.168 1.535.062.399-.061.737-.338 1.013-.799.798-.83 1.904-.83 2.026 0 .185-.092 2.18-.185 4.268a404.442 404.442 0 0 0-.184 4.237c0 .246.553 1.105 1.168 1.474.461.276.8.952 1.138 1.627.215.399.399.768.584 1.013.615.768-.092 1.781-.769 2.733-.645.921-4.15 5.158-4.673 5.71-.553.553-2.029 1.351-2.613 1.351-.522 0-2.951-.122-4.519-.245l-.615-.062c-1.906-.153-5.472-.46-6.702-.46-.922 0-1.752.184-2.674.368-.431.092-.892.184-1.414.277-1.261.214-3.628 1.596-4.335 2.026.184.246.553.706.891 1.228.492.737.216 1.412 0 1.689-.03.03-1.813 1.934-2.182 2.456-.4.552-2.214 1.289-2.429 1.351l-.092.03-.092-.061c-.062-.031-1.322-.645-2.091-1.167-.523-.337-1.168-.307-1.875-.245-.246.03-.461.03-.707.03-1.015 0-1.568-.583-2.091-1.105-.338-.338-.799-.614-1.322-.921a14.023 14.023 0 0 1-.707-.46c-.768-.522-3.72-1.628-4.642-1.628-.338 0-.676-.153-.953-.399l-3.751 1.29h-.03l1.229 1.197.83.246.369.245.154.461.184.215 1.046.276.246.276.184.369.246.276.369.092.4.062 6.117 2.18.585.368.307.399.154.43.03 1.013.093.399.276.338 1.753 1.382 1.352.859.923.86.215.092.43-.246.431.031.799.276.4-.03.737-.215.83-.123 1.169-.583.399-.062h.185l.153.062.339.307.184.061.308.062 1.229.368.4.061 1.353-.122.368-.093.339-.061.399.061.523.461.338.645.277.706.307.522.677.338 1.629-.062.799.154.523.552.215.614.307.461.8.123 1.537-.123.215.031.308.184.215.061.215-.061.123-.123.123-.123.123-.123 1.937-1.197 1.721-1.504.215-.123 1.169-1.106.276-.122.8-.246.338-.061.43-.092.185-.307.092-.369.215-.399.676-.338.83.123 1.445.522.83.031.738-.154.677-.368.584-.553.276-.43.185-.583.123-.645-.062-.522-.153.154-.093.061-.276.092.983-1.136.185-.184.246-.123.584-.583.369-.154h.154l.584.123h.676l.154-.031.276-.214.185-.031.615.031.184-.031.738-.184.799-.123.216-.062.307-.307.092-.061v-.092l.461-.369 1.199-.767.308-.276.153-.123.154-.031.092-.061.031-.215.062-.123.307-.307.123-.092.492-.123 1.168-.031.4-.215.399-.307.585-.153 1.106-.062.554.092.953.4.522.122 1.107.062.553.092.431.276.123-.153.399.123 1.876.03.184.092.123.185.185.215.246.092h.491l.246-.092.216-.215.092.491.307.43.431.307.522.092v.153l-.153.123-.308.369-.092.061-.185.092v.154l.123.092.216-.031v.215l.061.153.092.093.369-.185.123.092.092.123.093.092.092.031.061.092.093.123.184.031.185-.031.553-.246-.123.154-.062.215.031.184.154.153-.215.093-.185.122-.215.093-.246-.031.185.215.553.399-.031.338.215.337.615.553.246.399 1.168 4.913.062.982-.308 2.64v.215l.062.461.061.184.093.184.338.338.215.399.123.461.092.951.123.154-.092.553 1.199 1.381.246.676-.185.43-.584.644-.092.461.031.245.184.4.062.368.246.768.061.245.031.092h.061l.216-.03.092.03.399.492.031.092.185.184.153.399.216.86.43 1.074.123 1.044.123.307.246.154 2.429.184-.154.123 1.23.399.461.061.184-.03.338-.093.215-.03.216.03.369.215.215.031 1.014-.246.4-.03.461.03.369.093.277.245.184.491.031.185-.031.061-.031.123-.061.245-.092.922h.276l.4-.246.615-.553.738-.399.738-.184.676.153.553.737.554 1.198.399.583.492.246.584.092.554.184.614.123.646-.092.646-.492.092-.03.061.123.154.03.185-.061.153-.092.215-.215h.093l.061.061.123.062.277-.062.399-.368.246-.154.585-.122.522-.031-.123.338.338.184.953.061 1.138-.184 3.259.645h1.537l.215.061.092.154.062.215.123.214.153.093.615-.031.707.338.461.583.83 1.412.216.215.307.123.369.092.4.031.184-.062.154-.061.154-.061.122.092.154.153.154.031.369-.092 1.014-.522.216-.031c0-.031-.031-.061-.031-.092 0-.215.276-5.465.276-6.355ZM299.864 129.411h-3.136c-.185.031-.861.768-1.353 1.658-.399.676-.922 1.044-1.506 1.044-.215 0-.461-.061-.676-.154-.708-.307-.8-1.289-.861-1.903a.998.998 0 0 0-.062-.369c-.061-.214-1.076-.859-1.937-.951-.86-.123-6.056-.123-6.117-.123h-.154l-.062-.123s-.676-1.197-1.506-1.934c-.553-.491-.646-.491-.922-.43a2.583 2.583 0 0 1-.584.061c-.461 0-2.091.062-3.659.123-1.475.062-2.89.092-3.289.092-.308 0-.984.031-1.753.092-1.168.062-2.613.154-3.596.154-1.445 0-1.568 1.289-1.568 1.351l-.031.43-.338-.277c-.092-.092-2.583-2.149-3.044-2.579-.461-.46-1.844-2.395-2.182-3.316a.57.57 0 0 0-.216-.245c-.338-.123-.922.092-1.168.215-.154.276-.83 1.166-2.306 1.074-1.598-.123-1.906-.245-2.52-1.105-.369-.522-2.491-.952-3.751-1.136l-.154-.031-.031-.153s-.215-.768-.645-1.382l-.246-.368c-.646-.952-1.968-2.948-2.521-3.623-.738-.86.184-2.027.676-2.641l.093-.122c.307-.4 1.168-.799 1.906-1.136.399-.185.768-.369.922-.461.031-.031.061-.031.061-.123.031-.307-.368-.921-.86-1.443-.554-.552-1.66-1.32-2.275-1.627-.185-.092-.4-.153-.615-.246-.584-.215-1.261-.429-1.691-1.043-.307-.43-1.968-.522-4.95-.246h-.092c-.861.092-2.582.952-3.597 1.474-.399.184-.676.337-.83.399-.492.215-1.568 1.381-1.66 1.842-.154.706-2.213 2.548-2.89 3.039-.676.492-2.121 1.505-4.088 1.259-1.599-.215-3.597-.215-3.936-.215-.368.461-.645.799-.799.952-.307.307-3.074 5.342-4.765 8.443l-.061.123-7.963.123.215 15.351-.03.062s-.892 1.228-1.322 1.903a1.222 1.222 0 0 1-.308.369l3.321 4.728c.123.245 1.168 2.21 1.26 2.886.061.46 1.537 2.763 2.49 4.206.615.154 4.335 1.197 5.134 1.32 1.015.123 2.767 1.812 3.197 2.457l.554.921c.83 1.443 2.398 4.083 3.32 4.851 1.26 1.013 3.197 4.451 3.259 4.605l.092.184-.154.123s-.43.338-.553 1.013c-.062.43-.092 1.198-.123 1.781.922-.061 2.306-.184 2.613-.338.646-.307 2.582.031 3.259.246l.338.123c7.347 2.425 11.252 3.776 11.59 4.052.277.185 2.336.921 3.873 1.443 1.599.553 2.521.891 2.706 1.014.092.061.43.276.891.552 2.091 1.259 4.335 2.61 4.827 3.101.123.123.523.491 1.014.983 1.937 1.872 5.565 5.373 5.995 6.017.523.768 2.183 2.518 3.628 3.009 1.445.491 1.937 1.29 2.213 1.75.031.062.062.092.093.154.123.153.215.43.369.737.184.429.43.951.645 1.166.185.185.861 1.136 1.937 2.702 1.076 1.535 2.582 3.684 2.797 3.838.339.246 1.599 1.566 1.999 1.965l8.239-3.377c.061-.43.246-1.873.246-2.272v-.123c0-.307 0-.737.276-1.044.246-.246.585-.338 1.107-.338 1.384 0 3.197-.276 3.474-.491.523-.368 1.383-1.136 1.199-1.811-.092-.338-.553-2.119.031-3.071.184-.307.461-.491.799-.552.553-.123 1.568-.4 2.521-.676 1.568-.46 2.552-.737 2.921-.737.553 0 1.66-.46 2.274-1.105.615-.614 1.845-2.947 1.907-3.04l-.615-.245-.216-1.996-.245-1.013-.062-.491.246-1.597-.246-1.934-.061-1.044.153-1.32-.03-.461-.093-.215-.092-.215-.031-.214.154-.461-.092-.123-.154-.092-.061-.123.123-.337.491-.584.093-.368.246-1.689.03-1.719-1.383-5.22-3.167-10.592-.245-1.351-.031-1.689.092-.276 3.412-4.575.523-.46.615-.369.184-.245.093-.399-.031-.369-.062-.368.031-.307.338-.184.861-.062.246-.092.154-.276-.154-.307-.307-.277-.277-.153-.584-.154-.707-.061-1.322.092-1.414-.123-1.445-.583-1.138-1.075-.461-1.535.154-.706.553-1.228.031-.829-.492-3.254-.215-1.72c-.092-.123-.154-.092-.215-.092Z" fill="#FA0" stroke="#fff" stroke-width="1.5"/><path d="M113.502 211.141c0-.03.246-1.78.861-1.995.153-.062.338 0 .461.122.215.215.523.461.861.707.276.215.553.429.891.706.677.583 1.384.89 1.384.89l1.414.522v-.092c0-.123-.092-3.193-.092-3.5 0-.307 0-1.197-.83-1.75-.984-.645-1.445-1.535-1.445-2.149 0-.676.584-.952 1.475-1.351.215-.092.308-.246.277-.461-.031-.399-.43-.798-.646-.859-.491-.093-.891-.584-1.199-1.474-.123-.338-.184-.369-.86-.461-.154-.03-.369-.061-.584-.092a1.272 1.272 0 0 1-.923-.645c-.307-.552-.246-1.258-.153-1.504.092-.246-.031-.982-.246-1.197-.093-.092-.216-.123-.369-.092-.154.03-.492.153-.8.767l-.123.246c-.338.675-.399.798-.891.798h-.123c-.922 0-1.568-.307-1.845-.829a11.47 11.47 0 0 0-1.199-1.811c-.215-.246-.307-.522-.276-.799.061-.491.522-.921 1.045-1.289.523-.399.553-1.106.584-1.658 0-.184 0-.338.031-.461.061-.307.031-.982-.646-1.166-.461-.123-.738-.461-.738-.921 0-.338.123-.737.431-.86.246-.092.676-.062 1.322-.031.215 0 .43.031.584.031 1.568 0 1.814-.215 1.844-.276a3.508 3.508 0 0 1 1.199-1.321c.461-.307.769-2.087.892-2.671.031-.123.031-.215.061-.276.093-.491 1.845-2.671 2.398-3.347-.184-.307-.522-.829-.768-1.013-.431-.307-1.138-1.044-1.568-1.443-.431-.43-.215-2.057-.092-2.732-.431-.369-2.122-1.904-2.644-2.242-.677-.46-2.46-2.364-2.921-2.916-.522-.645-1.199-2.334-1.076-2.948.031-.092.031-.184.062-.276.092-.369.184-.614-.308-1.044-.369-.307-1.014-.952-1.629-1.566-.584-.583-1.199-1.197-1.445-1.382-.215-.153-.615-.521-1.076-.951-.707-.645-1.599-1.443-2.091-1.812-.707-.522-1.567-2.149-2.244-3.5l-.092-.153c-.277-.553-.645-.921-1.26-1.351-.462-.307-1.507-.277-2.06-.277h-.277c-.553 0-1.69 0-2.552-.307-.799-.307-1.906-.614-2.367-.614-.03 0-2.859-.03-3.75-.767-.584-.492-1.2-.676-1.968-.553-.738.092-3.412.092-4.458 0-.952-.092-2.613.092-3.166.829-.492.645-1.291 1.382-1.63 1.689l.339.522.307.644c.062.123.185.4.185.553 0 .031.092.184.153.276.031.062.062.123.093.154.061.153.215.614-.031.798-.03.062-.246.369-.369.645l-.03.061-.062.031c-.185.092-1.138.522-1.353.583-.03.031-.092.123-.092.154.184.215.154.645-.062.921-.153.184-.492.215-.676.215l-.123.215.246.276.307.461.093.767v2.119l-.4 1.105s-.615 1.996-.769 2.518c-.153.552-.768 1.872-1.106 2.364-.246.337-.738.706-1.2 1.013-.215.153-.399.276-.553.399-.276.215-.615 1.412-.768 2.18-.03.123-.123.184-.215.184h-.031c-.03 0-.03 0-.03-.031l.276.522.123.185.338.214.123.123.092.184.092.369.062.184.307.307.707.553.246.368.062.461-.123.46-2.736 7.522-.123 8.751h5.872l.184.122.061.277-.06 10.224.03.645 1.906.276.184.061.185.123.307.338.246.399.154.46.154.952.061.184.154.154.215.092.184.031h.216l.676-.092h.215l.215.061.185.154.369.614.584.675.676.676.123.153.092.215.031.246-.03.214-.154.185-.154.153-.154.184-.03.246.03.154.215.491.37.399.092.215.061.031.338 1.074.031.276.154.4.092.153.123.123.246.184.246.184.707.215-.03-.03h.03l.03-.031.093-.123v.154l1.322.122.4-.122.153-.123.154-.123.154-.184.03-.215-.03-.307-.246-.399-.093-.246.062-.368.276.061.77.43h1.26l.338.153.338-.122 1.199.122.369-.092.338-.276.246-.368.092-.43v-.215l-.092-.43-.03-.215.06-.246.154-.429.031-.277-.092-.952-.123-.46-.154-.399-.276-.307-.37-.307-.307-.307-.154-.461.062-.123.123-.153.092-.154-.215-.184.092-.276.154-.246.061-.092.984-.952.215-.061.984.153h.308l.338-.368-.123-.399-.462-.276-.553-.123-.492-.215.123-.43.523-.338.646.092.307-.153h.307l.308.092.369.061h.092l.154-.123h.123l.123.062.184.276.123.092.246-.061.184-.154.154-.03.154.245-.062.092-.03.062-.031.276.277-.215.276-.307.215-.092.154.768.154.307.276.184.37-.061-.031.368-.093.215-.522.675-.338.645-.123.276-.216-.337-.245-.215-.308-.123-.4-.061-.246-.093-.737-.399-.37-.092-.337.062-.584.215h-.4l-.738-.123-.277.092-.215.338.584.153.461.246.339.43.123.706.246.215 1.168.706.43.153.308.031.184.215.154.276.338.215.307-.061.246-.246.215-.338.093-.368.215.153v.123l-.062.123-.03.184v.43l.061.123.277.184.03.062-.03.859.184.184.461.031.37-.061.676-.307.369-.062.153.062.277.184.184.061.216-.03.399-.092.185-.031.399.031.154.03.185.092.184.123.092.092.031.092.123.185.154.368v.982l.061.338.492.768.584.123.646-.277 5.656-3.715.646-.215.676-.122.646.092.461.184.154.061.276.184.093.215.03.092c.031 0 .031-.03.062-.03 0 .061.615-.031.707-.676Z" fill="#FA0" stroke="#fff" stroke-width="1.5"/><path d="m161.153 273.191 3.536-1.228c-.216-.245-.431-.552-.615-.798-.216-.276-.4-.553-.523-.676-.338-.245-.523-.583-.738-.89a6.484 6.484 0 0 0-.461-.675c-.492-.614-1.476-1.228-2.244-1.628l-.062-.03c-.092-.092-2.213-2.057-2.705-2.856-.523-.89-.646-3.377-.646-3.807 0-.276-.676-1.074-1.168-1.627-.399-.43-.738-.86-.953-1.167-.246-.399-1.076-.798-1.875-1.197-.584-.276-1.168-.583-1.599-.89-1.137-.799-2.244-3.654-2.398-4.452-.061-.307-.522-1.873-.983-3.5-.892-3.101-1.476-5.158-1.476-5.435v-.153c0-.584.061-1.996-.861-2.886-.615-.614-1.598-2.641-2.521-4.606-.707-1.504-1.445-3.039-1.783-3.377-.799-.798-1.752-2.241-2.183-2.947-.43-.707-2.336-1.904-3.535-2.027-1.322-.153-2.06-1.136-2.06-1.75 0-.338-.276-1.965-.43-2.732-.615-.123-2.583-.522-3.167-.921-.338-.246-1.537-.154-2.736-.062-.738.062-1.475.123-2.213.123-.892 0-1.291-.092-1.507-.307-.184-.215-.153-.461-.123-.706a1.834 1.834 0 0 0 0-.584c-.123-.736-.83-1.228-.953-1.32-.184-.061-.983-.338-1.291-.645-.184-.184-.307-.491-.461-.89a6.464 6.464 0 0 0-.523-1.197c-.368-.645-.522-1.904-.584-2.671l-1.629-.614c-.031-.031-.769-.338-1.506-.952-.308-.277-.615-.492-.861-.706-.338-.277-.646-.492-.892-.737-.153.123-.43.798-.522 1.596a1.252 1.252 0 0 1-1.107 1.106l.154.307.276.368.277.215-.123.553.43 1.197-.215.737.246.123.123.153-.092.123-.277.031.062.215.03.399.062.245.061.092.677.737.768.461.339.307.43.645.799 1.535.492.737.492.552.246.399.123.43.154.215 1.076.43.584.614.276.399.123.369.154.276.953.798.523.798.092.246v-.645l.277.154.369.491.215.43.153.583.093.829v.829l-.123.522.215.399.123.123.154.061-.031.154-.092.86-.246-.307-.185.153-.123.369-.123.276-.153.276-.062.246.062.522.153.583.4.369.492.061.461-.307.338-.061 1.414-.062.431.062.061.122.031.154.031.368.061.092.154-.03.154-.092.123-.031.215.184.123.215.153.614.339-.092.153.307.062.491-.062.461-.123.245-.369.338-.123.154-.03.215.061.184.031.153-.185.184-.184-.368-.277-.368-.369-.307-.338-.154-.369.246-.061.522.092.583.154.399.83 1.105.154.43.153.215.338.092.738.062.769.184.584.368.461.553.4.768.215.921.031 2.701.153.676 1.076 2.825.154.214.584.645.646 1.044.215.276.615.584.369.614.031.583-.4 1.136.031.553.061.307.154.215 1.26 1.259.369.276.83.245.461.215.185.338.061.522.185.399.215.307.83.891.369.307.492.153.092.123.062.153.03.185.092.153.216.062 1.967.153.369-.031 1.045-.245h.892l.43.123.338.245.308.092 1.23-.184.86.123.738.338.677.46 2.121 2.057.676.369 3.197.737.677.307.584.491 1.353 1.443.122.215.277.706.154.246.277.245.737.276.277.277.154.491-.215.215-.4.031h-.338l-.369.03-.308.123-.153.277.03.429.369.43 1.384.645.953.43.584.399c.061-.123.123-.215.215-.246ZM92.228 132.328c-.03.184 0 .338 0 .491.062.369.092.768-.4 1.259-.153.153-.338.276-.522.461-.246.184-.8.644-.769.798 0 0 .031.123.554.215 1.721.307 2.336.307 3.043.307 1.2 0 1.476.583 1.476 1.044 0 .429.43 1.136.645 1.443.277.092 1.445.491 1.784-.215.153-.307.276-.645.368-.921.185-.522.308-.921.615-1.044.154-.062.338-.062.554.03.676.277 1.137.277 1.844.277h.431c.615-.031 1.26-.062 1.568.245a.558.558 0 0 1 .184.43c0 .123 0 .307-.031.461-.061.614-.123 1.412.369 1.811.677.584 2.306 1.382 2.306 1.413l.092.061.031.123s.215 1.013.307 1.289c.031.092.031.184.062.307.092.584.215.891.522.891.277 0 .523 0 .738.03.338.031.677.031.83 0 .185-.061.615-.276.861-.429 0-.031 0-.031-.031-.031l-.03-.062v-.061c0-.092.184-2.18 1.875-2.518 1.045-.215 1.814-.736 2.552-1.228.307-.215.614-.399.922-.583.953-.553 1.998-.522 3.105-.491h.676c1.291 0 2.644-.43 3.044-.983.492-.675 1.813-1.044 3.197-.552 1.137.429 2.828-.307 3.074-.952.123-.338.277-1.105.277-2.978 0-.154.031-.369.092-.645.123-.583.338-1.812 0-2.088-.646-.491-1.875-1.719-2.213-2.395l-.093-.153c-.338-.676-.584-1.105-1.106-1.105-.216 0-.584-.031-.984-.062-.953-.061-2.429-.153-2.951.031-.738.307-1.814.307-2.029.338-.154.061-.738.214-1.138-.062-.154-.123-.338-.338-.338-.798 0-.491-.308-.86-.615-1.259-.307-.399-.615-.829-.615-1.351 0-1.044-.061-1.474-.707-1.474-.953 0-2.429 0-3.105-1.013-.738-1.105-.953-2.057-.645-2.824.307-.737.584-2.702.614-2.702v-.031l.523-1.566.184.031a8.87 8.87 0 0 1 2.368.645c.737.307 1.69.552 2.244.307a.707.707 0 0 0 .369-.461c.43-1.474 1.814-1.504 3.013-1.381.584.061 1.475.153 1.629-.031.031-.031.061-.123-.031-.43-.246-.768-.861-2.548.062-3.469.676-.676 1.967-1.842 2.674-2.18.123-.062.215-.092.338-.123 0-.031.031-.092.062-.123.092-.092.215-.092.338-.031 0 0 .031 0 .031.031.43-.123.645-.276.645-.767 0-.676.216-1.566.4-2.272.092-.4.215-.799.215-.952 0-.123.031-.246.062-.43.092-.399.215-.952-.031-1.228-.123-.154-.369-.246-.738-.246-1.322 0-2.398-.46-3.351-.89-.307-.123-.584-.246-.891-.369-.953-.368-1.814-.337-2.521-.307h-.461c-.769 0-3.812.154-3.843.154-.123.03-3.904.614-5.165.153-1.168-.43-2.521-.614-3.289-.614-.892 0-2.491.307-2.706.553 0 .583-.553 1.719-1.721 1.904l-.154.03c-.922.123-1.752.246-2.367.031-.215.491-.8 1.689-1.322 2.456-.154.215-.185.399-.123.553.154.399.984.675 1.26.767.277.093.461.246.554.461.215.43.03.982-.123 1.443-.062.123-.093.276-.123.368-.062.185-.154.461-.246.799-.215.675-.523 1.566-.523 2.087 0 .43-.276 1.474-2.859 1.474-1.414 0-2.152 2.548-2.213 2.856.03.276.153 2.026.153 2.579 0 .798-.46 1.627-1.322 1.627-.276 0-.369.184-.522.706-.123.338-.246.706-.523 1.044-.523.675-.276 1.934-.276 1.965l.768 2.61s.922 2.579 1.506 3.285c.216.245.246.583.154.89-.246.706-1.137 1.32-1.66 1.443-.277.061-.676.215-1.076.368.184.215.43.952.338 1.505ZM261.067 62.111c0 .706-.8 1.29-2.122 2.057-.276.154-.43.369-.43.676-.031.491.338 1.074.584 1.228.154.092.338.184.584.276.461.184.923.369 1.045.768.185.522-.122 1.412-.153 1.535l-.031.061-.061.03c-.031.032-.953.8-2.521 1.413-1.353.522-1.107 1.996-1.076 2.057.03.706.246 2.549.584 3.132a.63.63 0 0 1 .031.614c-.4.675-2.152.952-2.829.952-.984 0-2.275-.46-2.797-1.351-.216-.338-1.076-.583-1.845-.798-.707-.185-1.414-.369-1.783-.676-.184-.153-.369-.337-.584-.522-.615-.583-1.353-1.259-2.183-1.259-.83 0-2.09-.337-3.32-.644-.646-.154-1.261-.338-1.783-.43-1.322-.276-2.398-.83-2.736-1.044-.615.307-3.628 1.72-5.288 2.395-1.476.614-2.244 1.842-2.429 2.241.615 0 .923-.123 1.476-.307l.184-.061c.4-.123.523-.277.646-.369.154-.153.277-.245.676-.245.185 0 .339.061.462.184.276.276.245.798.215 1.197v.246c0 .123.338.399.522.552.308.246.584.461.677.737.153.492.153 2.18.153 2.364v.123l-2.674 2.088 2.244 2.978-1.629 4.114.092 2.856c.615.522 4.458 3.807 4.98 4.42.646.768 1.322 2.303.584 3.409-.43.644-.184 1.903 0 2.855.093.43.154.798.154 1.044 0 .982-1.322 1.351-2.459 1.351-1.107 0-1.906.46-2.06.675l-.062.092c-.307.492-1.26 2.027-3.258 2.119-1.292.061-2.245.614-2.706 1.535-.092.154-.83 1.627-1.598 2.395-.369.368-1.169 1.381-1.906 2.272-.062.092-.123.153-.185.245.738 0 2.306.062 3.628.215 1.783.215 3.105-.736 3.75-1.197.83-.583 2.614-2.333 2.706-2.763.123-.676 1.322-1.935 1.937-2.18.123-.062.43-.215.768-.399 1.107-.584 2.798-1.443 3.751-1.535h.092c2.336-.215 4.827-.338 5.38.429.338.492.922.707 1.476.891.245.092.461.153.676.276.738.369 1.844 1.167 2.398 1.719.399.4 1.045 1.198.984 1.812 0 .184-.093.338-.246.46-.185.154-.554.308-1.015.522-.645.307-1.506.707-1.752 1.014l-.092.122c-.585.707-1.138 1.505-.677 2.027.584.675 1.937 2.702 2.552 3.684l.246.369c.338.521.553 1.105.645 1.381.707.092 3.382.522 3.935 1.29.492.706.646.798 2.183.921 1.384.092 1.906-.86 1.906-.891l.031-.061.061-.031c.093-.061.984-.522 1.599-.276.246.092.4.276.492.522.307.86 1.629 2.732 2.06 3.162.338.338 2.029 1.75 2.705 2.303.185-.614.738-1.382 1.937-1.382.984 0 2.429-.092 3.566-.153.799-.031 1.476-.092 1.783-.092.369 0 1.783-.062 3.259-.092 1.568-.062 3.197-.123 3.658-.123.246 0 .4-.031.523-.031.461-.061.645-.031 1.322.553.768.675 1.352 1.627 1.537 1.965.83 0 5.226 0 6.056.122.892.123 2.152.799 2.306 1.259.031.123.061.246.061.461.031.491.123 1.32.584 1.504.8.338 1.322-.184 1.599-.675 0-.031 1.107-1.904 1.752-1.904h3.136c.062 0 .092.031.123.031v-.061l.123-.952.492-.983.584-.737.615-.644.861-.43.276-.307-.123-.461 4.458-.245-.215-.4-1.353-1.688-.276-.553v-.184l-.246-.184-.431-.215-.153-.154-.154-.491-.123-.153-.154-.093h-.184l.246-.46.461-.215.984-.123.461-.123.338-.245.83-.921.092-.154.092-.153.246-.123.246-.031h.246l.215-.031.185-.245.061-.522-.061-.553.031-.491.338-.368.553-.43.369-.614.092-.369.554-.184.153-.675.062-.768v-.184l-.092-.399v-.215l.03-.246.277-.399.062-.215.03-.399.277-.798.092-.891.154-.307.43-.583-.184-.184-.031-.184.031-.185.031-.245-.031-.092-.646-.829-.092-.215.123-.092.154-.093.03-.214-.092-.185-.092-.092-.031-.215.031-.46.092-.43.246-.215h.4l.43-.092.338-.184.154-.369-.092-1.105.092-.43.092-.245.369-.492.123-.215.154-.644.184-.43.431-.492.246-.399.092-.43-.031-.43-.184-.859-.154-.215-.43-.645-.246-.49-.031-.553.061-.123.246-.246.062-.153-.031-.369.031-.123.123-.49v-.216l-.123-.153.123-.46-.031-.37-.061-.306-.093-.768-.092-.368-.154-.338-.215-.307-.276-.338-.308-.276-.369-.184-.43-.062-.246-.123.184-.245.369-.276.215-.246.031-.184-.061-.43.03-.246.123-.123.185-.061.154-.092.061-.246v-.184l.031-.215.061-.184.092-.154.185-.215.031-.153-.031-.092-.031-.645-.276-1.32-.277-.4-.062-.214v-.491l-.03-.215-.062-.246-.092-.123-.092-.123-.154-.092-.154-.092.031-.153.031-.031.061-.092-.276-.614.123-1.044.368-1.689-.092-.337-.031-.246.093-.215.092-.184.092-.184.092-.246v-.522l-.092-.215-.154-.307-.123-.737-.737-.092-.892-.153-13.189.245-.614-.338-.369-.614-.523-1.289-.369-.583-1.906-2.18-.83-1.228-.676-1.351-.554-.676-.645-.276-1.507-.246-.645-.368-1.168-.921-2.614-.798-.184-.031-.154.092-.215.307-.123.123-.184.03-.246-.153-.123-.368-.092-.4-.123-.337-.308-.307-.246-.031-.584.215h-.154l-.153-.092-.123-.092-.123-.123-.308-.062-.03-.153.03-.184.031-.154.031-.061.061-.062.031-.092-.123-.153-.338-.338-1.107-.89-.215-.307-.369-1.443-.031-.46.062-.216.092-.215.092-.184-.061-.184-.093-.246.031-.46-.061-.277-.369-.46-.338-.307-.431-.123-1.014.46-.369-.06-2.398-1.597-.584-.584-.215-.092-.523-.092-.246-.061-.246-.185-.707-.307-1.383-.276-1.107-.583-.092.153-.031.307-.246.277-.185.061-.184.03-.4-.06h-.184l-.123.091-.123.123-.154.092-.399.031-.431-.061-.768-.277-.892-.767-.307-.154-.338.03-.277.185-.215.307-.185.369-.246.337-.307.154-1.63.153-.245-.061-.462-.338v5.189c0 .061-.153 2.794-.153 3.377Z" fill="#FA0" stroke="#fff" stroke-width="1.5"/><path d="M128.781 129.473c.584.429.338 1.658.184 2.517-.03.246-.092.461-.092.584 0 1.565-.123 2.609-.338 3.162-.369.921-2.367 1.689-3.689 1.197-1.138-.429-2.275-.122-2.644.369-.492.675-1.937 1.166-3.413 1.166h-.707c-1.106-.03-2.029-.03-2.889.43-.308.185-.585.369-.892.584-.769.522-1.568 1.074-2.705 1.289-1.23.246-1.476 1.75-1.507 2.057.123.277.523 1.413.246 2.303-.276.798-.553.982-1.014 1.289a2.413 2.413 0 0 0-.4.277 2.897 2.897 0 0 1-.523.307c-.276.153-.584.338-.614.491 0 .061 0 .184.338.491.953.86 1.383 1.29 1.383 1.689a.505.505 0 0 1-.154.368c-.307.307-.676.676-1.813.676-.892 0-2.214-.062-2.583-.092-.123.123-.369.368-.369.583 0 .215-.03.614-.061 1.044-.031.399-.062.798-.062 1.013 0 .307.216.86.277 1.044l.031.031v.061c0 .369.123 1.382.615 1.75.369.276 1.137.737 1.783 1.167.645.399 1.168.737 1.383.89a.812.812 0 0 1 .185.154c.399.337.83.706 1.506.245.984-.644 2.029-.583 2.736.123.615.614 1.937 1.72 2.306 1.904.215.123 1.352-.522 1.752-1.136.062-.123.154-.246.215-.399.338-.614.8-1.443 1.937-1.351.861.061 1.906-.215 2.675-.43a6.19 6.19 0 0 1 .738-.184c.123-.031.276-.092.461-.154.492-.184 1.26-.491 1.814.338.307.46.522.982.737 1.474.216.491.431.982.677 1.258.461.553.953 1.321.43 2.211-.215.368-.277 1.075 0 1.627.185.43.523.706.984.798 1.383.307 2.398.522 2.644 1.505.215.798.676 1.412 1.26 1.566.769.215 1.845 1.105 2.183 1.75.307.614.492 2.425.523 2.702.122.276.799 2.057-.4 2.824-.861.553-1.261 1.228-1.045 1.873.153.43-.062 2.149-.339 4.329-.092.706-.153 1.32-.153 1.474 0 .184.184 1.412.369 2.732.153 1.106.338 2.303.492 3.378.03.061.061.122.061.184 0 .031 0 .031-.031.031.123.982.215 1.811.215 2.179 0 1.443.431 2.549 1.261 3.316.83.768 4.734 3.807 6.025 4.79-.061-.829-.092-2.395.277-3.009.215-.368.4-1.105.584-1.842.215-.798.4-1.566.646-1.996.492-.829 1.629-3.807 1.506-4.759-.153-1.074-.615-3.96-.615-3.991v-.061l.031-.062c.062-.123 1.261-2.978 2.06-3.745.523-.522 2.152-1.628 3.628-1.566.676.03 1.229.307 1.629.798 1.353 1.658 2.675 1.904 3.351 1.904.768 0 3.597.153 3.689.153h.061c.031 0 2.552.737 3.997 0 1.383-.675 3.074-.553 3.535-.491l1.937-2.211-3.32-3.93v-.092c0-.031.461-4.298.461-4.882 0-.307.031-1.964.092-3.684.031-1.658.093-3.377.093-3.684 0-.461-.431-1.75-.615-2.211l-.062-.184.154-.092s4.304-2.61 5.072-3.07c.831-.492 2.398-.492 3.659-.492.645 0 2.213-.03 3.72-.092 1.26-.03 2.459-.061 2.89-.061.799 0 1.629-.798 1.629-1.627 0-.983.984-1.228 1.906-1.505.123-.03.277-.061.4-.123.338-.092.553-.184.768-.245.431-.154.769-.276 1.722-.369 1.291-.153 2.09-1.32 2.09-2.087 0-1.106.892-2.395 2.091-2.395h5.226c.4 0 .676-.154 1.107-.461.123-.092.276-.184.461-.276.246-.154.461-.368.676-.553.431-.399.861-.798 1.476-.706.584.123 1.814-.123 2.306-.215.368-.276 2.367-1.78 2.92-1.995.369-.154 1.168-1.198 1.568-1.812l.061-.092h2.03c.338 0 .737-.061 1.137-.675a97.47 97.47 0 0 1 1.291-1.843l-.215-15.197-17.646.307-30.62.368-.061-.031c-.031 0-1.999-1.381-2.737-1.658-.276-.122-.768-.276-1.322-.491-1.076-.399-2.274-.829-2.705-1.044-.553-.276-2.183-.122-3.658.307-1.66.492-4.335.154-5.257-.491l-2.214-1.474c-.492.154-2.305.737-2.736.737-.307 0-2.336.461-3.627.768h-.031c-.092 0-2.644.153-3.689.153-1.076 0-1.937.154-2.337.43-.43.277-2.09 1.013-2.521 1.198-.03.245-.123.89-.123 1.688 0 .246.031.491.031.676.062.614.092 1.105-.615 1.504a13.74 13.74 0 0 1-1.322.676c.554.675 1.568 1.658 2.091 2.057Z" fill="#FA0" stroke="#fff" stroke-width="1.5"/><path d="M118.851 184.799c.799-.461 1.968-.86 2.675-.522l.123.061c.492.246.522.276 1.045 1.044l.154.215c.676.982 1.352 1.443 2.059 1.443.185 0 .369-.031.523-.061.646-.123 1.107-.154 1.537.951.492 1.29 1.045 2.487 1.783 2.303.554-.123.861-.491 1.138-.829.153-.184.276-.338.43-.46.461-.338 1.107-.461 1.138-.461h.03l1.445.246c-.153-1.014-.307-2.18-.461-3.163-.246-1.658-.4-2.609-.4-2.794 0-.184.062-.675.185-1.535.154-1.32.461-3.746.338-4.114-.123-.399-.277-1.443 1.23-2.425.953-.615.215-2.242.215-2.272l-.031-.062c-.061-.552-.246-2.118-.492-2.579-.276-.553-1.26-1.32-1.906-1.504-.737-.215-1.352-.952-1.598-1.904-.154-.645-.8-.829-2.275-1.167-.615-.122-1.045-.491-1.322-1.074-.338-.737-.215-1.566.031-2.027.307-.521.184-.982-.4-1.688-.277-.338-.492-.829-.738-1.382-.215-.491-.43-.982-.707-1.412-.338-.491-.707-.399-1.26-.184-.185.061-.369.153-.554.184a8.54 8.54 0 0 0-.707.184c-.799.215-1.906.522-2.859.43-.83-.061-1.168.522-1.506 1.105-.093.154-.154.277-.246.43-.4.614-1.753 1.597-2.337 1.32-.461-.215-1.814-1.412-2.428-1.995-.585-.584-1.384-.584-2.183-.062-.953.614-1.629.062-2.06-.276-.061-.061-.123-.092-.154-.123-.184-.153-.737-.491-1.352-.86-.677-.429-1.445-.89-1.814-1.166a1.195 1.195 0 0 1-.43-.522c-.431.215-1.691.798-2.152 1.136-.615.399-1.63.921-1.661.921h-.061c.43.767.922 1.535 1.322 1.842.492.368 1.383 1.197 2.121 1.842.461.43.861.798 1.076.952.277.215.861.798 1.476 1.412.615.614 1.26 1.259 1.598 1.535.707.614.554 1.106.462 1.505-.031.092-.031.153-.062.245-.092.4.461 1.965.984 2.579.492.615 2.244 2.426 2.828 2.825.615.399 2.705 2.303 2.798 2.364l.092.092-.031.123c-.184 1.044-.246 2.272-.061 2.456.399.399 1.106 1.106 1.506 1.413.43.337.922 1.197.984 1.289l.061.123-.092.123c-1.014 1.228-2.09 2.64-2.367 3.131.4.246 1.383.891 1.783 1.136.43.185.83.031 1.537-.337ZM31.42 86.673c0-.552.522-1.627 1.475-1.627.584 0 .707 0 .707-.86 0-1.136.646-1.934 1.63-1.934.83 0 2.735 0 3.166-.153.276-.092.461-.645.461-1.474v-2.64l.184-.031c.062 0 1.26-.307 2.368-.307.245 0 .492-.03.737-.062.707-.092 1.507-.153 1.63.86.123.86.522 1.044 1.63 1.044.583 0 2.643-.307 4.303-.553 1.537-.215 2.49-.368 2.767-.368.953 0 1.63.338 2.029 1.044.43.706.8.829 1.69.952.093.03.216.03.308.061.769.123 1.414.215 1.568 1.044.154.798 1.414.89 1.937.89 1.014 0 2.46-.706 2.89-1.412.43-.706.43-2.15.276-2.917-.153-.737-.922-3.5-1.23-4.267-.276-.676-.89-2.58-1.075-3.132-.37 0-1.23-.03-2.03-.215-.676-.123-.737.061-.89.368-.032.062-.062.154-.093.215-.215.43-.83 1.044-.86 1.075l-.124.123-.154-.092c-.061-.031-1.137-.615-1.66-1.044-.307-.246-.4-.645-.276-1.106.092-.337.276-.736.553-1.043.154-.185.154-.246-.369-.768-.154-.154-.338-.338-.553-.583-.615-.676-.523-1.443-.37-1.935l-2.274-.522c-.215.185-.83.645-1.507.983-.922.46-3.012.092-3.75-.092-.523-.123-1.138.737-1.568 1.32-.123.184-.246.338-.338.46-.553.676-1.63.676-3.136-.03-1.291-.614-1.199-1.412-1.168-1.812v-.122c0-.246-.062-.83-.215-1.597-.093-.46-1.291-1.044-1.63-1.044-.215 0-.584-.092-1.076-.215a14.585 14.585 0 0 0-1.506-.307c-.984-.123-2.552-2.026-2.705-2.241l-3.105-4.667-5.319-13.908-1.137-2.057c-.031-.123-.43-1.167-.43-1.627v-1.812l.153-.061c.03 0 1.537-.614 2.46-1.014.553-.245.799-.46 1.014-.644.154-.123.276-.246.492-.369a.327.327 0 0 0 .092-.153c.092-.338-.246-1.075-.584-1.566-.461-.675-.461-1.75-.461-2.272 0-.553 0-1.965.092-2.702v-.061c.092-.737.215-1.566.892-2.15.614-.49 1.414-1.227 1.444-1.227a.19.19 0 0 1 .216-.031l.03-.123.092-.184.031-.215-.153-.123-.43-.184-.154-.123-.093-.184-.154-.46-.061-.154-.184-.184-.154-.093-.154-.092-.123-.215.154-.307-.092-.245-.246-.123-.246-.061-.185-.062v-.184l.031-.215-.03-.123-.185-.03-.154.06-.123.093-.061.03-1.845-.552-.492.123-.123-.307-.184-1.075-.123-.215-.154-.215-.43-.89-.154-.215-.154-.061-.184-.215-.154-.215-.061-.154-.093-.122-.645-.4-.062-.061-.03-.092-.062-.092-.154-.03h-.184l-.092-.032-.461-.307-.093-.122.154-.277-.369-.307-.215-.43-.553-2.026-.216-.46-.368-.246.061-.061.061-.093-.4-.03-.399-.062-.338-.153-.03-.062-1.476-.982-.339-.277-1.076-.43-.245-.276-.492-.675-.277-.154-.43.123-1.937 1.412-.062.246.092.706-.061.307-.092.277-.615 1.105-.062.276-.03.369.03.276.062.276-.03.246-.154.276h-.031l-.062.46.062.4-.031.4-.277.398-.369.246-.922.368-.4.092-.46-.03-1.23-.553-.43-.061-.985.245-.43.031-.369-.03h-.307l-.246.091-.37.215-.214.246.123.276.46.491.093.215.092.46.215.4v.154l-.03.153v.184l.061.184.215.43v.185l-.123.368.031.184.461.338.8.4.707.429.123.522-.339.645-.092.337.154.83-.154.276-.307.215-.246.399.092.153.062.123.061.338.123.153.154.123.153.123v.368l.062.154.061.184.185.46.246.308.277.276.953.43.092.614-.492 1.535-.062.43.031.245.092.277.093.368-.093.154-.153.153-.062.123.246.123.308.092.153.092.123.123.123.337v.461l-.092.829.184 1.075-.03.368-.216.86v.245l.031.553v.184l-.061.338.061.184.154.123.277.092.891.154.584-.307.246-.031.277.092.246.184.246.307.123.338v.338l-.4.522-.646.49-.522.523.092 1.013-.061.43-.123.399-.123.307-.123.184-.308.123-.153.123-.031.184.154.4-.093.122-.369.154-.215.184-.184.276-.154.43-.154.338-.43.46-.154.276v.031l-.154.246-.122.276-.031.276.092.277v.276l-.154.246-.184.215-.062.215.308.46.615.123 1.168-.154.215.062.646.307.215.123.092.184.062.245.123.277.184.245.154.031.123-.03.123-.031.123.092v.123l-.062.337v.123l.123.246.246.03.277-.122.246-.123.492-.03.491.214.462.368.645.737.062.215-.185.277-.645.46-.123.184-.093.645.37.368.399.308.061.368-.153.43-.123.522-.031.522.092.43.062.368-.215.614.092.368.246.123.676.062.277.184.246.614.184.184.646-.092.153.184.123.307.154.277 1.015.614.43.46-.061.676-.216.276-.246.123-.215.184-.153.368.061.43.184.369.123.368-.123.4-.245.613v.215l.153.369.092.153.123.03.154.062.123.092.062.123.092.338.092.092.154.03.369-.091.153-.031.154.092.184.215.4.184.123.184-.03.246-.216.215-.092.583.123.369.154.337.092.492-.092.49-.246.4-.646.737-.215.522.154.368.368.215.462.123.553-.03.277.03.215.184.154.184.184.123.215.062h.246l.308.153.246.369.43.736.215.461-.03.4-.37.767-.184.736v.43l-.061.062-.246.061-.062.062-.03.337.245.338.37.276.215.246.03.276.092.184.154.154.154.184.092.277.03.215.062.184.216.245.491.215.523-.061.984-.369.461.031.338.368.185.553.092.491.03.922.123.368.339.399-.43.276.091.246.339.246.276.245.093.4-.062.982.092.46.554.676.246.43-.093.43-.215.337-.215.43-.123.46.123.338.338.307.37.062.399-.123.369-.246.338-.092.584-.276h.461l.43.123.677.245.276.246v-.061c0-.031.154-1.69.154-2.15Z" fill="#FA0" stroke="#fff" stroke-width="1.5"/><path d="M42.056 104.573s.922-.154 1.63-.461c.399-.153.737-.184 1.045-.03.338.153.614.522.799 1.105.123.368.523.675.922.952.523.399 1.076.798 1.076 1.412 0 .553.062 2.426.984 3.04.4.245.892.399 1.383.552.677.185 1.23.338 1.445.768.246.491.677 1.259.861 1.566.584 0 2.767.03 3.597.153 1.076.184 2.398.154 2.644-.153.03-.031.061-.062.03-.185-.06-.153-.122-.337-.184-.491-.307-.829-.676-1.75.123-2.241.738-.43 1.476-1.197 1.506-1.197l.4-.4v.553c0 .061.185.246.861.246.553 0 1.476-.123 1.476-1.013 0-.952.4-1.935 1.168-1.935h4.304c.645 0 3.074.184 3.29 1.106.06.245.06.491.06.736 0 .492.031.829.277.952.031.031.093.031.123.062.093-.123 1.076-1.413 2.767-1.198 1.291.154 1.876.123 2.214.123h.184c.092-.092.215-.614.215-1.32v-2.364c-.307-.307-1.414-1.474-1.629-1.965-.092-.246-.43-.553-.738-.829a6.376 6.376 0 0 1-.645-.645c-.093-.123-.308-.307-.492-.522-.584-.553-1.291-1.259-1.291-1.873 0-.215-.154-.614-.308-.952-.277-.644-.523-1.228-.277-1.596.062-.123.216-.246.523-.246 1.076 0 3.105-.337 3.535-.737.462-.46 1.814-1.658 2.183-1.965-.307-.43-.615-.89-.768-1.105-.216-.338-.83-.522-1.66-.522-.984 0-1.169-.86-1.292-1.566-.092-.46-.092-.46-.707-.43h-.46c-.278 0-.493-.092-.647-.276-.368-.43-.215-1.259-.123-1.842.031-.184.062-.338.062-.43 0-.491.154-1.074 1.23-1.443.123-.03.184-.092.246-.215.184-.399-.093-1.166-.216-1.443-.123-.184-.307-.737-.215-1.044.031-.153.031-.49.031-.614v-.522s-.03-.061-.061-.153c-.093-.215-.216-.491-.246-.645-.031-.153-.154-.399-.216-.491-.153-.03-.584-.092-1.322-.092-.891 0-1.936-.276-3.166-.799l-.86-.43c-.708-.368-1.569-.828-2-.706a.35.35 0 0 0-.214.246c-.154.338-.4.584-.707.706-.37.154-.8.062-1.046-.03-.03.614-.153 1.228-.43 1.657-.492.83-2.121 1.659-3.259 1.659-1.352 0-2.213-.461-2.367-1.26-.092-.49-.43-.583-1.199-.706-.092 0-.184-.03-.307-.06-.892-.154-1.476-.308-1.999-1.198-.338-.553-.86-.799-1.66-.799-.246 0-1.445.185-2.674.369-1.753.276-3.751.552-4.397.552-.983 0-1.875-.122-2.06-1.412-.092-.552-.368-.552-1.137-.46a6.5 6.5 0 0 1-.8.061c-.798 0-1.69.184-2.09.246v2.272c0 .614-.092 1.688-.768 1.903-.461.154-1.937.154-3.29.154-.86 0-1.168.767-1.168 1.474 0 1.043-.246 1.32-1.168 1.32-.615 0-1.015.798-1.015 1.166 0 .46-.153 2.088-.153 2.18 0 .123-.123.215-.215.215l.184.154.215.153.492.092.523.46.86 1.137.462 1.074.215.277.307.092.677-.184.215.03.277.185h.368l.37-.185.43-.337h.184l.185.061h.184l.584-.184 1.138.061.369-.123.338-.184.307-.123.277.031.553.184.154.031.061.061.093.43.092.154.092.123.154.122.369.154.369-.03.768-.154.338-.123.308-.215.338-.154.369.062.307.184.154.307-.062.307-.184.368-.307.246-.523.338-.277.338-.276.245-.37.062-.706-.062-.892.46-.369.093-1.26-.03-.37.122-.245.246-.123.337-.062.369v.338l.154.828-.03.277-.554-.154h-.092l-.092.031.153.43.216.399.061.092.03.092-.03.092-.061.062-.154.123-.092.122-.031.184v.185l.246.614 1.137 1.781.984.859.43.491.154.614-.061.093-.093.215-.215.245-.154.276.062.338.246.154h.553c0-.031-.03-.062-.03-.092-.154-.123-.062-.215.061-.246Z" fill="#FA0" stroke="#fff" stroke-width="1.5"/><path d="m32.71 136.995.154.337.092.123c.03 0 .061-.03.092-.03.03-.062.062-.123.123-.154.03 0 1.722-.798 2.521-1.504.369-.307.615-.676.86-.952.278-.369.523-.676.862-.829.307-.123.707-.461.83-.798a.519.519 0 0 0 0-.307c-.093-.154-.215-.277-.338-.4-.308-.337-.707-.736-.707-1.443 0-.399.092-.675.276-.859.308-.277.8-.246 1.506-.185.954.093 1.445-.276 1.6-.675.03-.092.06-.215.091-.307.093-.338.185-.706.492-.768.308-.061.615.246.83.522.8 1.014 2.152 1.505 2.613 1.351.37-.123 1.66-.46 2.583.461.307.307.984.89 1.721 1.474.984.829 2.03 1.688 2.398 2.118.339.399 1.2.461 1.906.522.37.031.707.061.953.123.492.153 1.753 0 2.306-.338.092-.061.185-.153.185-.184.092-.491.307-.706.491-.798.308-.185.677-.154 1.138 0 .984.368 2.675.921 3.412.921.738 0 1.507-.645 1.507-1.106 0-.644-.123-1.289-.277-1.504-.154-.246-.338-.89-.061-1.197.061-.093.276-.246.645-.062.43.215 1.845.614 2.613.829-.153-.276-.338-.614-.4-.706a7.882 7.882 0 0 0-.522-.583c-.123-.123-.277-.553-.369-.86v-.829l.062-.061c.092-.093.768-.952 1.168-1.198.184-.123.492-.46.768-.798.246-.307.492-.583.677-.737.307-.246.615-1.351.645-1.658.031-.276.4-1.412.43-1.535l.093-.276 1.26.767.492-.123.492.277h1.906c.154-.277.308-.461.338-.461l1.23-1.381c.584-.584 1.168-1.321 1.168-1.536 0-.368-.092-1.473-.153-1.842-.277-.123-.984-.43-1.66-.552-.892-.154-1.415-.307-2.06-.645-.492-.246-.584-1.044-.677-1.842-.061-.399-.092-.829-.184-1.044-.369-.737 0-2.088.8-2.886.368-.369.399-.522.399-.553 0-.092-.277-.215-.492-.307-.523-.276-.523-.86-.523-1.351 0-.245 0-.46-.03-.614-.093-.368-1.568-.737-2.86-.737h-4.303c-.4 0-.708.768-.708 1.474 0 .921-.707 1.474-1.936 1.474-.646 0-.953-.154-1.138-.307-.276.276-.83.737-1.352 1.044-.43.245-.277.798.061 1.688.062.184.123.338.184.522.093.307 0 .491-.092.614-.584.706-2.982.307-3.074.307-.892-.153-3.628-.153-3.658-.153h-.154l-.061-.123c-.031-.031-.615-1.075-.923-1.689-.123-.245-.645-.399-1.168-.552-.492-.154-1.076-.307-1.506-.584-1.076-.706-1.169-2.609-1.169-3.408 0-.368-.43-.706-.891-1.044-.461-.337-.922-.706-1.107-1.197-.154-.46-.338-.737-.553-.829-.185-.092-.4-.061-.677.061-.707.277-1.537.43-1.69.461l.153.123-.061.552-.4.645-.246.614.4.399-.154.277-.184.092-.246.031-.462.153-.307-.061h-.184l-.492.276-.246.246-.277.061-.553-.215-.246.031-.185-.092-.369-.246-.276-.061-.123.03-.246.399v.093l.03.276-.03.092-.092.061-.277.031-.123.031-.184.184-.093.246v.276l.062.276v.031l.154.522-.031.399-.154.399-.154.522-.246.338-.492-.154-.553-.276-.4.031-.123.399.031.553-.092.491-.492.338-.523.061-.215.092-.184.246-.062.245.062.43-.062.246-.522.552-.123.338.276.307.154.092.154.123.123.154.061.153.062.246.092.123.092.092.062.153.061.399v.399l.062.369.215.276.062.123-.031.246-.031.214-.092.123-.093.031-.4-.123-1.229-.092-.553-.153-.615-.307-.707-.185-.092.584.153.829-.03.644-.062.154-.123.153-.092.154-.154.123-.922.184-.184.276.553 1.75.215.461.338.245.37-.276h.399l.369.215.276.43.093.46-.031.553-.246 1.013-.092.185-.246.399-.093.122.093.246.123.184.123.185v.245l-.185.246-.738.583-.276.276-.43.369-.216.46-.123.553-.276.583-.154.154-.185.123-.4.184.37.491.43.246.461.03.523-.092h.061l.03.031.032.031 1.598 2.855.246.246.277.245.246.246.123.368.092.43.123.369Z" fill="#FA0" stroke="#fff" stroke-width="1.5"/><path d="M76.795 157.658c-.03-.031-.061-.093-.092-.154-.123-.215-.215-.368-.215-.491 0-.062-.062-.215-.123-.369l-.308-.614-.4-.583c-.276-.061-.922-.215-1.137-.645-.153-.307-.8-.829-1.23-1.074-.153-.092-.368-.185-.522-.277-.246-.122-.461-.215-.553-.337-.093-.093-.154-.185-.246-.307-.093-.123-.185-.215-.277-.307-.092-.093-.523-.307-.8-.43l-.737-.092c-.461-.154-1.599-.553-1.783-.737-.062-.031-.123-.092-.216-.154-.338-.245-.614-.46-.707-.614-.061-.092-.276-.184-.43-.245-.03-.031-.092-.031-.123-.062-.092-.061-.43-.245-.553-.614-.062-.184-.462-.767-.554-.829-.092-.061-.4-.184-.645-.276l-.062-.031-.03-.061c-.124-.185-.37-.461-.554-.522a5.44 5.44 0 0 1-.646-.277c-.584-.245-1.813-.798-2.028-.829-.4-.03-.585-.337-.708-.583-.03-.031-.03-.092-.061-.123a.892.892 0 0 0-.43-.399c-.154-.092-.923-.675-1.046-.859-.03-.031-.215-.093-.4-.123-.276-.031-1.198-.215-1.444-.492-.215-.214-.43-.491-.154-.982.03-.061.03-.123 0-.215-.03-.123-.154-.184-.215-.215-.277-.092-1.353-.706-1.568-.829l-.03-.031-.677-.614a7.43 7.43 0 0 1-.553-.614c-.185-.245-.43-.583-.185-.951.03-.062.061-.123.061-.215.062-.185.123-.461.43-.553.185-.031.954-.184 1.23.031.093.061.185.153.277.215.062.061.154.122.246.215.062.061.37.092.584.092h.031l.307.061a.941.941 0 0 0 .062-.246c-.092-.153-.154-.552-.154-.614l-.03-.092.061-.092c.123-.153.553-.645.738-.767 0-.031 0-.185-.03-.277l-.093-.337.338.03c.338.031.953.092 1.199 0 .307-.092.584-.43.584-.43l.154-.184.184.154s.308.245.554.092c.369-.246.768-.461 1.106-.184.123.092.892.122 1.476-.062.553-.215.953-.43 1.045-.522.031-.153.185-.368.677-1.074.061-.092.092-.123.123-.154.061-.092.153-.153.307-.245.184-.123.43-.277.553-.461.154-.215.093-.368.062-.553 0-.03-.03-.092-.03-.122-.032-.215-.216-1.014-.216-1.014v-.061c.03-.123.03-.307.03-.461-.614-.184-2.459-.706-2.981-.951-.062-.031-.093-.031-.123-.031-.031.061-.031.43.092.614.246.368.338 1.197.338 1.75 0 .737-1.045 1.566-1.968 1.566-1.045 0-3.473-.89-3.566-.921-.338-.123-.584-.154-.768-.031-.123.092-.215.246-.277.491-.03.185-.154.369-.4.492-.645.399-2.06.583-2.674.399-.215-.062-.523-.092-.86-.092-.8-.062-1.722-.123-2.214-.676-.339-.399-1.384-1.289-2.337-2.057-.738-.614-1.445-1.197-1.752-1.504-.738-.737-1.814-.461-2.121-.369-.769.246-2.306-.46-3.136-1.504-.277-.338-.37-.338-.37-.338-.03.031-.091.307-.122.43-.03.123-.061.246-.123.368-.215.553-.892 1.075-2.09.952-.554-.061-.984-.092-1.138.062-.092.092-.154.245-.154.521 0 .522.277.829.584 1.136.154.154.308.307.4.492.123.184.154.43.062.675-.154.491-.677.921-1.076 1.075-.216.092-.4.337-.646.675-.246.307-.523.676-.922 1.044-.83.737-2.552 1.535-2.613 1.566-.031 0-.062.031-.093.031h-.091l.214.215.861.583.062.184.061.154v.736l.123.154.307-.061.308-.215.523-.492.307-.122.892-.031.368-.092-.061.645.307.337.4.246.123.491-.215.307-.861.522-.277.369.308.245.522.123.554-.061.338-.307.092-.062.092-.031.093.031.092.062.03.03.062.031.615.737.184.368.154.399.061.43v.369l.093.307.615.583.707.983.584.46.246.246.153.368v.215l-.092.399-.03.184.092.185.215.153v.184l-.123.277-.246.276-.492.491-.369.277-.307.061-.277-.031-.4.062-.369.184-.03.245.246.215.799.092.338.154.277.215.092.307-.123.368-.276.277-.154.215-.246.276.4.86 1.045.122 2.12-.245 1.907.583 1.814.86.492.491 1.752 1.013.83.645 1.168.737.738.829 5.442 4.697.584.43.522.276.584.123.615-.061.338-.123.83-.46.246.03 1.015.338.369.215.246.276.215.307.277.399.492.369.092.153.03.246-.061.123-.092.123-.154.399-.092.092v.092l.123.276.092.123.523.522.092.123.061.123.339.429.092.123.184.092.092.246.37.276.092.277-.031.307-.092.184-.123.184-.062.246-.03.307v.153l.122.092.277.092.246.154.154.215.153.184.277.031.338.123.031.061.277.399.4.921.276.307.646.307.153.369v.03l.093.369.215.399c.061-.338.43-2.026.922-2.426.154-.122.369-.276.584-.429.43-.307.892-.645 1.076-.921.308-.461.892-1.72 1.046-2.242.153-.522.768-2.517.768-2.548l.369-1.044v-1.996l-.061-.644-.216-.338-.43-.522.43-.768h.154c.184.031.4 0 .43-.061.093-.092.093-.276.062-.338a.476.476 0 0 1-.062-.46.625.625 0 0 1 .4-.43c.123-.031.769-.307 1.199-.522.246-.491.369-.645.43-.706-.03.03-.061-.092-.092-.184ZM128.812 106.446c1.414-.952 4.119-.829 5.288-.338 1.045.461 4.211 1.044 4.242 1.075l.215.03-.031.215c0 .031-.092.737.923 1.136.461.184 1.076.338 1.629.461 1.199.307 1.937.491 2.152.829.185.307 1.691 1.504 2.705 2.272.615-.706 1.476-1.842 1.476-2.303 0-.737 0-1.597-.553-2.149-.615-.614-1.414-1.566-1.722-2.211-.184-.399-.768-1.719.031-2.702.553-.675.707-1.504.43-2.057 0-.03-.891-1.811-.215-2.456.308-.307.83-.246 1.599.154 2.305 1.228 3.074 1.535 3.812 1.842.338.123.615.399.953.645.461.399.984.859 1.783 1.013 1.353.307 2.736-.031 2.982-.492.369-.706 2.121-2.578 3.812-3.315 1.076-.492 2.029-1.29 2.767-1.935.4-.337.768-.644 1.045-.829.431-.245.738-.614 1.045-.92.216-.246.431-.461.646-.615.277-.184.676-.614.953-.92a78.576 78.576 0 0 1-2.275-.676c-.338-.123-.984-.246-1.629-.4-1.169-.245-2.49-.552-3.013-.86-.553-.337-2.736-.797-3.72-.49-.154.03-.338.123-.4.245-.492.983-1.906 2.088-2.705 2.549-.83.49-2.121.798-2.89.798h-.307c-.646.03-1.291.03-2.275-.676-.369-.276-.83-.46-1.291-.614-.769-.307-1.507-.583-1.722-1.35-.277-.952-.861-1.873-1.445-2.334-.246-.184-.799-.46-1.383-.737-.892-.43-1.906-.952-2.46-1.412-.461-.4-1.014-.706-1.506-.921-.062.491-.154 1.412-.277 1.873-.061.276-.184.46-.338.675-.184.307-.43.676-.584 1.474-.307 1.443-1.66 1.166-2.552 1.013-.123-.03-.215-.03-.338-.061-.645-.093-1.107.307-1.691.798-.153.123-.276.246-.43.368-.4.307-.553.737-.738 1.167-.154.368-.307.737-.584 1.105-.738.921-1.845 1.014-2.183 1.014-.153 0-.461.03-.83.03-.83.03-2.121.123-3.474.123-1.629 0-3.135.215-4.334.368-.246.031-.492.062-.708.093-1.014.122-1.168 2.057-1.168 2.087 0 .062-.03.092-.061.154.891-.03 1.906-.092 2.305-.092h.462c.737-.031 1.66-.062 2.705.337.307.123.584.246.891.369.954.399 1.937.829 3.167.829.492 0 .861.153 1.076.399.369.461.215 1.167.123 1.627-.031.154-.062.277-.062.338 0 .215-.092.583-.215 1.075-.184.675-.399 1.535-.399 2.149 0 .644-.277.921-.615 1.105.43.338 1.168.522 1.906.031Z" fill="#FA0" stroke="#fff" stroke-width="1.5"/><path d="M142.892 110.161c-.154-.215-1.138-.461-1.875-.645-.584-.153-1.199-.307-1.691-.491-.922-.338-1.199-.983-1.23-1.413-.707-.153-3.228-.644-4.15-1.043-1.076-.461-3.597-.553-4.857.276-1.138.767-2.306.184-2.798-.154a2.063 2.063 0 0 0-.461.154c-.554.276-1.722 1.289-2.552 2.118-.707.707-.184 2.303.062 2.979.092.245.153.614-.031.859-.277.369-.953.307-2.06.215-1.506-.153-2.275.154-2.521 1.075a1.138 1.138 0 0 1-.615.737c-.83.399-2.09-.062-2.613-.277-.799-.337-1.691-.522-2.06-.583l-.399 1.167c-.031.215-.338 2.057-.615 2.794-.246.614-.062 1.443.584 2.394.553.829 1.845.829 2.736.829 1.168 0 1.168 1.013 1.168 1.935 0 .368.246.706.523 1.074.338.43.707.921.707 1.535 0 .307.123.369.154.399.215.154.645.031.768 0h.093s1.199 0 1.906-.276c.615-.246 1.998-.153 3.135-.061.4.03.738.061.953.061.83 0 1.199.706 1.507 1.32.277-.123.799-.368 1.322-.675.461-.276.43-.491.399-1.075-.03-.215-.03-.43-.03-.706 0-1.074.153-1.842.153-1.873l.031-.123.123-.061c.584-.246 2.214-.952 2.582-1.197.646-.43 1.907-.492 2.583-.492 1.014 0 3.412-.122 3.658-.153.431-.092 3.259-.768 3.72-.768.308 0 1.691-.43 2.582-.706l2.06-6.632c-.676-.552-2.644-2.087-2.951-2.517ZM87.832 40.927v.03c0 .031-.308 2.456-.308 3.04 0 .583-.276 1.934-1.322 2.794-.645.522-.307 1.35.216 2.364.061.092.092.184.123.276.46.952.83 1.812.307 2.825-.4.798-.307 1.596.246 2.026.769.584 1.875 2.763 1.906 2.856.184.399.523.798.86 1.197.185.215.339.4.493.614.492.675.492 1.627.492 2.733 0 .951.799 1.504.83 1.504l.03.03c.154.154 3.413 3.409 3.874 4.023.461.583 1.537 3.162 1.69 3.53.277.277 2.153 2.18 2.614 2.764.4.522 1.537 1.29 2.582 1.29.584 0 1.169.245 1.691.49.523.215 1.045.43 1.537.43 1.046 0 3.812 0 4.735-.153.707-.123 2.275-.952 3.105-1.382.215-.123.399-.215.522-.276.4-.184 1.107.061 2.275.491.185.061.369.154.584.215 0-.03.031-.03.031-.061.492-.43 1.845-1.628 2.091-2.211.307-.768 1.199-2.702 1.229-2.763l.923-2.15c0-.03.03-.06.061-.091l-.768-.492-.339-.092-.276-.153-.892-1.014-1.291-.92-.615-.584-.553-.829-.431-1.136-.246-.4-.184-.306-.215-.768-.154-.276.062-.768-.585-.522-.83-.306-2.336-.492-1.506-.552.153-.185.092.031.185.062.184-.031-.645-.307-.584.092-.615.245-.738.093-6.917-.89-1.353-.4-2.89-1.443-1.322-.86-1.198-1.197-.923-1.259-.369-.798-.184-.83.03-.153.031-.214v-.277l-.615-.952-.153-.337-.062-.46v-.461l.154-.43-.738-2.456-.276-2.61-.339-.768-.03-1.136-.123-.43.215-.644-.062-1.842-1.168-.246h-.584l-.4.215-.368.307-.43.276-.493.184-.43.123h-.092c0 .03.03.03.03.062l.769 3.1Z" fill="#FA0" stroke="#fff" stroke-width="1.5"/><path d="M67.542 18.36c0 .307.153 1.75.276 3.009.124 1.259.246 2.364.246 2.64 0 .123-.03.338-.061.614-.123.707-.338 2.211.154 2.457.984.491.737 1.32.615 1.596-.154.46-1.046.676-1.507.553a2.077 2.077 0 0 0-.522-.092l-.646 1.32c.4.215 1.322.768 1.63.921.184.092.215.215.215.307.03.276-.246.553-.554.86l-.307.307c-.185.276-.984 2.088-1.107 2.395-.123.368-1.076 1.535-1.63 1.872-.338.215-1.26.768-1.782 1.106.707.307 2.09.951 2.736 1.504.891.768 2.12.86 2.613.86.215 0 .492.03.768.03.738.062 1.845.123 2.152-.184.554-.552 1.906-.86 1.968-.89l.246-.062.03.246c0 .03.216 1.535.308 2.456.03.307.03.584.03.83-.03.552-.03 1.043.37 1.627.215.337.584.644.86.92.4.37.738.645.707.952 0 .092-.03.246-.215.369-.553.43-.522.552-.522.583 0 0 .03.092.338.154.86.184 1.537.46 2.029.675l.153.062c.523.215 1.261.767 1.261 1.35 0 .43-.184 1.904-.215 1.965l-.03.154-.124.03s-.615.216-1.199.492c-.338.153-.615.491-.645.767-.031.123 0 .215.092.307.43.43 1.045 1.444 1.045 1.474.061.123.646 1.198.646 1.75 0 .369.184 1.167.276 1.505l.861.86.83.43.83 1.135.861.553c.461-.03 1.014-.03 1.199.215.123.153.215.368.277.522l.891.245.062.062c.061.092.338.491.338.798 0 .154.123.46.43.553.092.03.215.061.308.092.307.123.43.123.553.03.707-.706 1.23-.982 1.63-.828.153.06.43.06.706.092.43.03.892.061 1.2.245.245.154 1.198 0 1.567-.215a2.089 2.089 0 0 1-.4-1.228c0-1.044 0-1.934-.43-2.487a8.612 8.612 0 0 0-.492-.614c-.338-.399-.707-.829-.922-1.259-.43-.86-1.26-2.302-1.783-2.67-.738-.553-.891-1.597-.369-2.58.43-.829.123-1.535-.307-2.394-.031-.093-.093-.185-.123-.277-.461-.89-1.107-2.118-.123-2.947.83-.706 1.137-1.842 1.137-2.426 0-.583.277-2.702.308-3.07l-.769-3.04c-.03-.061 0-.122.03-.184l-.337-.03h-.093l-.584-.522-.492-.768-.676-.798-.277-.338-.307-.307-.277-.43-.307-.245-.215-.277-.123-.583-.216-.46h-.43l-.892.398h-.46l-.339-.276-.276-.399-.892-.645-.03-.368.092-.4-.154-.49-.215-.185-2.368-1.074-1.199-.86-.338-.614-.03-.86.153-.245.953-.553.031-.123v-.153l.061-.154 3.32-.522.739-.43.184-.245.123-.246.092-.307v-.307l-.092-.246-.523-1.074-.276-.246-1.046-.399-1.014-.921-.43-.553-.246-.583.03-.706.338-.614.523-.46.584-.277 1.138-.215.953-.583.645-.184-.4-.768-.491-.645-1.23-1.044-3.044-3.285-1.076-.952-.368-.215-.246-.061-.215.276-.185.154-.215.061-1.384-.03-.43.122-.338.215-1.045.983-2.49 1.258-.954.89-.245.154-.4.031-1.26.4-.738.368-.339.245c.43.246 2.122 1.228 2.583 1.597.615.522.707 1.136.707 1.72ZM230.57 173.869v.215c0 .675.031 1.78-.922 2.179-.185.093-.431.185-.646.277-.768.307-1.721.706-1.998.982-.4.399-1.845 1.013-1.998 1.075l-1.169.583-.123-.153s-.584-.676-1.229-.676c-.738 0-2.091.491-2.091 1.32 0 .614-.276.952-.553 1.29-.246.307-.492.614-.615 1.197-.307 1.505-4.365 3.593-5.564 4.022a71.308 71.308 0 0 1-3.505 1.167c-.031 0-4.642 1.811-5.257 2.057-.646.246-4.611 1.382-4.796 1.412l-.092.031-.062-.031c-.614-.276-2.428-.982-3.228-.89-.983.123-2.275.491-2.674.645-.277.092-.953.338-1.261.46l.246 10.255-.092.061c-.092.062-2.336 1.689-2.982 2.057-.338.185-.738.43-.769.645 0 .123.154.277.277.399.369.307.861.952 1.353 1.566.43.553 1.076 1.412 1.291 1.474.553.123.892.614 1.076 1.474.123.675.4 7.215.4 7.767 0 .338.522 2.303.86 3.593.093 0 .154.03.216.03.614.123 3.812.522 3.842.522h.123l.062.092s.645 1.167 1.137 1.904c.246.368 1.507 1.934 2.859 3.592 1.599 1.934 3.228 3.961 3.72 4.636.984 1.412.369 5.465.154 6.141-.123.399.031 1.351.184 2.118.554-.031 1.722 0 2.337.737.646.737 1.383.86 2.429.338.553-.277 1.291-.645 1.998-1.044a79.087 79.087 0 0 1 1.506-.768c.154-.061.308-.153.492-.245.83-.43 1.845-.952 2.398-1.075.646-.123 1.66-.368 1.66-.399h.031l1.568-.154-.031.277c-.031.245-.646 6.079-.769 6.601-.153.583-.368 4.329-.153 4.882.246.614.891 1.75 1.598 2.364.093.092.216.184.339.307.768.644 1.906 1.627 2.52 1.719.492.092 1.353.123 2.552.123.185 0 .799-.031 1.414-.062.646-.03 1.23-.061 1.445-.061.338 0 1.23-.368 1.322-.737l.43-1.719 5.534-.399.031.184c.031.153.768 3.623.768 4.298 0 .491 1.199 3.255 2.737 3.255 1.137 0 2.275.122 3.012.184.339.031.615.061.707.061.708 0 1.138.369 1.138 1.013 0 .615.369 1.843.369 1.873l.061.215-.184.092c-.615.246-1.722.737-1.968 1.075-.399.522-1.26 1.412-1.322 1.443-.276.368-.707 1.105-.584 1.443 0 .031.062.153.338.215 1.384.276 1.353 1.228 1.353 1.873v.153c0 .338.123 1.259.215 1.996.093.706.154 1.167.154 1.351 0 .276.43 1.596 1.599 1.688 1.352.123 2.213 1.106 2.398 1.566.03.092.061.215.061.369.062.491.154 1.197.953 1.535 1.291.583 1.814 1.32 2.183 2.026.369.737.461.891 1.598.891h.554c1.014-.031 1.844-.031 2.459.583.215.215.431.461.677.706.491.522 1.076 1.136 1.475 1.474.584.46 2.337 1.228 3.29.982 1.076-.276 1.537-.276 2.644.706.799.707.891 1.136.983 1.566.031.154.062.307.123.461.185.491 1.199 1.044 1.968 1.474.123.061.246.153.369.214.092.062.215.123.338.185.799.46 1.998 1.166 2.613 1.074.338-.061.646-.276.922-.491.308-.215.584-.43.923-.43.338 0 .953-.061 1.291-.092-.062-.614-.246-2.333-.246-2.763 0-1.658-.369-2.057-.707-2.088-1.045-.153-1.968-1.535-2.122-2.118-.153-.584 0-.921.4-1.72.338-.675.123-1.351-.123-1.995a10.96 10.96 0 0 0-.43-.891c-.431-.829-.738-1.412-.738-1.781 0-.521.246-2.026.246-2.087l1.045-9.395c.031-1.136.277-6.878.4-7.246 0-.031.031-.123.061-.215.185-.737.677-2.671 2.214-2.671 1.691 0 1.844-.307 1.844-.676v-3.131l-1.229-1.474s-.246-.276-.185-.614c.062-.276.277-.491.676-.645.861-.368 1.753-1.013 1.753-1.013l.061-.061h.093c.061 0 5.287.399 5.902.399.369 0 .646-.092.707-.215.062-.123-.061-.338-.123-.461-.522-.798-.43-5.649-.43-6.294-.185-1.258-.492-2.732-.707-2.947-.554-.553.123-1.597.645-2.119.123-.122.369-.675-.553-2.824-.4-.952-.799-4.084-.799-4.728 0-.338-.246-4.391-.492-7.952-.215-3.47-.4-6.479-.4-6.724 0-.031.092-4.391.431-4.882.123-.215.338-1.535.461-2.763-.677-.706-1.691-1.781-1.937-1.934-.215-.154-1.045-1.29-2.921-3.961-.86-1.228-1.721-2.487-1.875-2.64-.277-.277-.523-.829-.738-1.29a6.845 6.845 0 0 0-.338-.675c-.031-.062-.061-.093-.092-.154-.246-.43-.677-1.105-1.968-1.535-1.568-.522-3.289-2.333-3.873-3.193-.4-.583-4.12-4.206-5.934-5.926-.491-.491-.891-.859-1.014-.982-.461-.461-3.351-2.211-4.734-3.04-.492-.307-.8-.491-.923-.552-.153-.093-1.445-.553-2.613-.952-2.213-.768-3.689-1.29-3.996-1.505-.154-.092-1.568-.706-11.467-3.96l-.339-.123c-.83-.276-2.521-.461-2.92-.276-.461.245-2.244.368-2.829.399v.307c.093.153-.184 2.057-.184 2.702ZM167.64 92.691l-.215.276c-.031.031-.8.952-1.292 1.26-.184.122-.338.306-.553.521-.307.338-.676.706-1.137 1.013-.246.154-.585.43-.984.768-.769.675-1.753 1.474-2.89 1.996-1.629.736-3.29 2.517-3.566 3.131-.369.737-1.998 1.075-3.474.737-.892-.215-1.507-.706-1.998-1.136-.308-.246-.554-.46-.8-.583-.768-.307-1.537-.614-3.873-1.842-.769-.4-1.015-.307-1.076-.246-.277.246 0 1.32.307 1.934.369.706.154 1.75-.492 2.549-.615.767-.123 1.872.031 2.21.277.583 1.045 1.505 1.66 2.088.676.675.676 1.658.676 2.456s-1.414 2.395-1.721 2.733l-2.091 6.693 2.152 1.443c.861.583 3.382.89 4.888.43 1.415-.43 3.259-.676 4.028-.307.399.184 1.629.644 2.644 1.043.553.215 1.045.4 1.322.492.707.276 2.397 1.443 2.766 1.658l30.466-.369 25.793-.43c.677-1.228 4.335-7.982 4.796-8.412.185-.184.738-.86 1.322-1.597.738-.921 1.537-1.934 1.937-2.302.584-.584 1.23-1.72 1.537-2.272.553-1.106 1.629-1.72 3.105-1.812 1.752-.092 2.613-1.474 2.89-1.903.031-.031.061-.062.061-.092.277-.43 1.292-.891 2.429-.891.953 0 1.998-.276 1.998-.89 0-.215-.061-.553-.153-.952-.185-1.013-.461-2.395.061-3.193.584-.89-.031-2.21-.553-2.855-.554-.645-4.95-4.39-5.011-4.452l-.093-.062-.122-3.162 1.567-3.96-2.367-3.163 2.859-2.21c0-.737-.03-1.812-.153-2.12-.062-.153-.308-.337-.523-.521-.338-.276-.707-.553-.707-.921v-.246c0-.276.031-.706-.092-.86-.031-.03-.062-.06-.123-.06-.216 0-.246.03-.339.122-.122.123-.307.307-.83.491l-.184.062c-.799.276-1.199.399-2.675.245-1.598-.153-2.705-1.412-2.766-1.473l-.031-.031v-.061s-.308-1.167-.861-1.75c-.646-.645-1.26-1.996-1.291-2.058v-.03l-.246-.83c-1.045.43-2.46 1.106-2.767 1.382-.369.369-.953.645-1.353.46-.153-.06-.43-.245-.43-.767v-.46c-.031-.89-.062-1.904.523-2.61.491-.614.707-1.29.707-2.15 0-.982-.216-1.626-.4-1.626h-1.599l-.153-2.764h-.369c-.185.062-1.076.338-1.63.584-.338.153-1.414.767-1.414 1.473 0 1.044-.522 1.781-1.537 2.211-.676.276-.738 2.18-.615 3.285v.092l-.061.062c-.154.184-1.568 1.873-2.06 2.18a153.09 153.09 0 0 0-2.613 1.842l-.062.03h-4.058c-1.445 0-3.228.584-3.935 1.873-.492.89-1.26 1.535-2.029 1.75-.461.123-.861.093-1.199-.122-.338-.215-.492-.093-1.014.49-.215.216-.431.492-.738.738-.861.736-3.044 1.443-4.181 1.443-.123 0-.215 0-.307-.031-.8-.123-4.489-.03-5.227 0-.461.645-1.906 1.075-2.521 1.228-.215.061-.522.43-.707.89-.153.369-.153.676-.092.768.553.829.492 1.596-.215 2.15-.769.613-4.55 3.96-4.611 3.99l-.062.062h-.092c-.092 0-2.644.153-3.536.153-.83 0-1.69.4-2.459 1.167-.215.215-.43.522-.646.83-.492.675-.983 1.38-1.813 1.38-.8 0-2.275.738-2.859 1.075.83.246 1.69.491 1.69.491l.431.154Z" fill="#FA0" stroke="#fff" stroke-width="1.5"/><path d="M206.16 237.147c.246-.768.738-4.544-.092-5.711-.461-.676-2.183-2.763-3.689-4.636-1.414-1.75-2.644-3.255-2.89-3.623a24.1 24.1 0 0 1-1.107-1.842c-.584-.062-3.197-.399-3.781-.492-.646-.122-2.521-.245-2.982-.122-.523.122-3.751.491-3.904.522l-.154.03-1.752-2.947c-.154-.184-1.076-1.382-1.076-2.18 0-.737-.369-2.364-.861-2.947-.492-.615-1.998-1.751-2.029-1.751l-.062-.061c-.461-.706-1.445-2.395-.891-2.917.307-.307.492-1.566.553-2.302 0-.123-.154-3.378-.154-4.268 0-.86-.153-1.566-.83-2.118-.215-.154-.399-.338-.584-.492-.461-.399-.768-.675-1.137-.675-.615 0-5.349-.307-5.534-.307h-.123l-.061-.092c-.431-.584-1.66-2.149-2.337-2.364-.922-.307-7.286-3.869-7.562-4.022l-.031-.031-2.921-3.562.123-.153c.062-.062 1.414-1.566 2.244-1.904a.93.93 0 0 0 .615-.767c.062-.399-.123-.799-.553-1.167-.922-.798-1.722-1.904-1.968-2.241-1.352.123-2.766-.246-3.012-.307-.308 0-2.921-.154-3.659-.154s-2.244-.276-3.72-2.088a1.758 1.758 0 0 0-1.291-.644c-1.26-.062-2.736.89-3.289 1.412-.677.675-1.753 3.132-1.937 3.561.061.43.461 2.948.615 3.93.154 1.167-1.107 4.329-1.568 5.066-.215.369-.4 1.106-.584 1.842-.215.799-.4 1.566-.646 1.996-.338.583-.246 2.518-.184 3.224l.369 2.026v2.303c0 .706-.677 1.566-1.537 1.904-.923.368-1.814-.215-2.275-.829-.277-.369-.984-.307-1.691-.246-.246.031-.492.031-.738.031-1.015 0-2.306-1.136-2.828-2.119-.462-.952-.892-1.259-1.63-1.259-.153 0-.184.062-.215.092-.184.277.123 1.167.215 1.474l.123.399c.246.737.892 2.733 1.291 3.378.523.859-.799 2.916-1.076 3.315l-.03.062-.062.031c-.215.092-2.06.951-2.859.951-.4 0-.83.983-1.014 1.658 0 0-.308 1.965-.308 2.702 0 .276-.123.522-.369.737-.492.461-1.537.675-2.674.553-.4-.031-.707.03-.892.215-.277.276-.246.736-.246.736 0 .062 0 .123-.031.154.277.276.585.706.646 1.197.031.277.031.522 0 .706-.031.154-.031.277 0 .338.061.062.307.154 1.137.154.708 0 1.445-.062 2.152-.123 1.599-.123 2.614-.184 3.044.153.461.338 2.429.768 3.136.891l.153.03.031.154c.062.246.461 2.487.461 2.947 0 .307.492 1.167 1.63 1.321 1.352.153 3.381 1.443 3.843 2.272.43.706 1.352 2.087 2.121 2.886.369.368 1.076 1.811 1.875 3.5.892 1.842 1.875 3.93 2.429 4.482 1.045 1.044 1.014 2.579.984 3.224v.154c0 .276.86 3.193 1.475 5.311.492 1.72.922 3.224.984 3.562.154.737 1.199 3.438 2.213 4.145.431.307.984.583 1.538.859.891.43 1.752.86 2.059 1.382.154.276.523.675.892 1.105.768.89 1.291 1.505 1.291 1.934 0 .737.184 2.886.584 3.562.4.675 2.367 2.517 2.583 2.732.43.215 1.721.921 2.367 1.72a6.1 6.1 0 0 1 .492.737c.184.307.338.552.614.767.185.154.4.43.646.768.43.614.984 1.381 1.537 1.381 1.107 0 4.12 1.198 4.888 1.72.246.153.461.307.707.429.523.308 1.015.615 1.384 1.014.492.491.953.951 1.783.951.215 0 .43 0 .676-.03.738-.062 1.507-.092 2.152.337.646.43 1.63.952 1.937 1.106.738-.307 1.875-.86 2.121-1.167.4-.522 2.121-2.395 2.214-2.456 0 0 .399-.522-.031-1.136-.492-.768-1.015-1.382-1.015-1.412l-.153-.215.215-.123c.123-.092 3.166-1.965 4.734-2.211.492-.092.953-.184 1.384-.276.922-.184 1.783-.369 2.767-.369 1.26 0 4.826.308 6.732.461l.615.061c1.537.123 3.997.246 4.488.246.431 0 1.784-.737 2.275-1.228.492-.491 3.997-4.759 4.612-5.649.615-.86 1.199-1.658.768-2.18-.215-.277-.43-.676-.645-1.075-.308-.583-.646-1.228-.984-1.443-.676-.399-1.414-1.381-1.414-1.873 0-.184.092-2.18.184-4.267.093-1.996.185-4.053.185-4.237 0-.154.03-1.413.984-2.364a.677.677 0 0 0 .215-.614c-.093-.492-.584-1.044-.923-1.198-.522-.276-2.09-2.241-2.397-2.64l-.031-.031v-.031c-.031-.061-.062-.245-.123-.491-.062-.031-.123-.092-.123-.184 0-.061 0-.123.061-.184.123-.86-.061-1.935.123-2.456ZM27.607 25.913c-.523.43-.646 1.167-.738 1.842v.061c-.092.707-.092 2.15-.092 2.61 0 .491 0 1.474.369 2.027.092.122.799 1.228.645 1.934a.635.635 0 0 1-.307.43c-.185.092-.308.215-.43.337-.246.215-.523.43-1.138.706-.738.338-1.906.799-2.336.983v1.596c0 .277.246 1.014.4 1.444l1.137 2.057 5.318 13.877 3.075 4.575c.43.522 1.721 1.965 2.397 2.057.492.061 1.076.184 1.568.307.4.092.8.184.953.184.461 0 1.937.645 2.06 1.413.062.368.215 1.289.215 1.688v.184c-.03.369-.092.89.892 1.351.891.43 2.09.768 2.582.154.092-.123.215-.277.338-.43.523-.706 1.26-1.689 2.06-1.504 1.015.245 2.736.46 3.412.122.8-.399 1.476-.982 1.476-.982l.092-.062 3.075.707-.154.276c-.03.03-.523.89.184 1.658.216.215.37.399.554.552.46.461.83.83.4 1.382a2.94 2.94 0 0 0-.462.86c-.092.307-.03.522.123.645.37.306 1.138.736 1.445.92.215-.214.523-.583.646-.828l.092-.185c.184-.46.43-.86 1.414-.644.769.153 1.599.184 1.937.184.215-.614 1.045-2.671 3.013-2.763 1.568-.062 1.936-.676 2.244-1.167.092-.154.184-.276.277-.4a4.14 4.14 0 0 1 1.629-.982c.676-.215 2.336-1.013 2.582-1.29.308-.306 1.753-1.38 2.86-.644.86.583 1.721.768 2.49.583.707-.184 1.383-.92 1.598-1.228.246-.368.892-.583 1.353-.706.307-.092 1.322-.614 1.69-.798.031-.03.093-.03.124-.03l-.185-.124-.8-1.105-.83-.43-.952-.952-.03-.06c0-.062-.308-1.168-.308-1.69 0-.337-.37-1.105-.584-1.535 0 0-.615-.982-.984-1.381a.742.742 0 0 1-.215-.706c.061-.43.43-.86.891-1.106.461-.215.892-.399 1.138-.491.061-.4.184-1.443.184-1.78 0-.246-.492-.707-.984-.922l-.153-.061c-.492-.184-1.138-.46-1.968-.645-.154-.03-.584-.123-.676-.491-.092-.369.276-.706.676-1.044l.03-.03c0-.093-.337-.4-.552-.615a5.02 5.02 0 0 1-.954-1.013c-.46-.706-.46-1.29-.43-1.873v-.767c-.061-.676-.215-1.72-.277-2.18-.46.122-1.168.368-1.475.706-.461.46-1.537.368-2.521.307-.277-.03-.523-.03-.738-.03-.553 0-1.906-.093-2.92-.983-.77-.676-2.983-1.597-3.013-1.597l-.43-.184.368-.246c.03 0 1.66-1.013 2.152-1.32.461-.276 1.353-1.382 1.445-1.627.092-.307.922-2.18 1.168-2.518.093-.123.215-.245.37-.399.122-.123.337-.307.399-.43-.461-.245-1.752-.982-1.814-1.013l-.184-.123.983-1.965h.154s.338 0 .769.123c.338.092.922-.123.953-.245.123-.4.184-.768-.4-1.044-.769-.4-.553-1.904-.4-2.917.031-.246.062-.46.062-.553 0-.245-.123-1.412-.246-2.579-.123-1.32-.277-2.702-.277-3.04 0-.583-.092-1.012-.522-1.35-.492-.4-2.614-1.597-2.644-1.628l-.031-.03-.8.89-.583.553-.738.399-1.814.645-.86.49-.155.185-.061.184-.676.952-.277.83-.092.153-.215.184-.093.061-1.076.584-.246.03-.276-.061-.492-.215h-.277l-.307.123-.277.215-.246.276-.461.737-.092.215-.154.092-.277.153-.154.123-.215.307-.307.645-.277.246-1.045.49-.338.247-.246.306-.492.952-.215.307-.246.246-.277.215-.307.184-.37.123-.337.03-.308-.091-1.875-.768-.246-.03h-.215l-.43.153h-.708l-.215.061-.369.154-.922.614-.308.153-1.199.154h-.184l-1.045-.215-1.2-.522-3.78-.706-1.353-.491-1.599-.031-1.014-.215-.492-.03-.215-.032-.4-.215-.246-.06-.246-.062-.4-.184-.369-.215-.122-.154s0 .03-.031.03-.861.738-1.445 1.229Z" fill="#FA0" stroke="#fff" stroke-width="1.5"/><path d="M162.905 183.847c.554.46.8 1.013.707 1.566-.092.491-.43.921-.922 1.105-.522.215-1.475 1.136-1.937 1.627l2.614 3.193c2.305 1.29 6.732 3.715 7.439 3.961.892.307 2.183 1.996 2.521 2.456.738.031 4.858.307 5.411.307.553 0 .953.369 1.445.798.184.154.338.307.553.461.892.706 1.015 1.627 1.015 2.487 0 .89.153 4.268.153 4.298-.03.369-.184 2.149-.676 2.641-.154.153.277 1.289.953 2.302.246.185 1.568 1.198 2.06 1.812.553.706.953 2.425.953 3.224 0 .583.707 1.565.984 1.903l.03.031 1.599 2.702c1.199-.154 3.32-.399 3.689-.492.43-.092 1.629-.061 2.459.031-.215-.798-.83-3.07-.83-3.531 0-.583-.246-7.061-.368-7.675-.123-.645-.369-1.013-.738-1.106-.338-.092-.8-.675-1.537-1.627-.462-.614-.923-1.228-1.261-1.504-.307-.246-.461-.522-.43-.768.03-.43.522-.737.983-1.013.554-.338 2.398-1.658 2.86-1.965l-.246-10.347.153-.061c.031-.031 1.046-.399 1.414-.522.431-.154 1.722-.522 2.767-.645.984-.123 2.982.706 3.413.891.584-.154 4.089-1.167 4.673-1.382.645-.246 5.257-2.057 5.287-2.057.031 0 2.091-.645 3.474-1.167 1.63-.583 5.042-2.61 5.257-3.684.123-.676.461-1.075.707-1.412.246-.307.431-.553.431-1.014 0-1.197 1.629-1.78 2.551-1.78.677 0 1.23.491 1.476.706l.892-.43c.43-.184 1.598-.706 1.875-.983.338-.337 1.26-.706 2.152-1.074l.645-.276c.677-.277.646-1.136.646-1.75v-.215c0-.645.246-2.518.246-2.61 0-.031 0-1.812.123-2.579.092-.583.4-.983.584-1.167-.4-.706-2.029-3.469-3.074-4.298-.984-.798-2.521-3.408-3.413-4.974-.246-.43-.43-.737-.522-.89-.431-.676-2.091-2.15-2.859-2.242-.892-.122-5.104-1.289-5.288-1.351l-.092-.03-.062-.062c-.246-.368-2.49-3.745-2.613-4.452-.092-.521-.891-2.149-1.199-2.732l-3.259-4.698c-.307.185-.614.215-.891.215h-1.783c-.308.43-1.168 1.658-1.722 1.873-.43.184-2.213 1.474-2.859 1.965l-.031.031h-.061c-.062.031-1.722.399-2.552.245-.369-.061-.645.185-1.076.584-.246.215-.461.46-.768.614a5.218 5.218 0 0 0-.431.276c-.492.307-.83.522-1.383.522h-5.226c-.984 0-1.63 1.167-1.63 1.934 0 1.075-1.045 2.365-2.521 2.518-.922.092-1.199.215-1.629.338-.215.061-.43.153-.799.245-.123.031-.277.062-.4.123-.984.277-1.568.461-1.568 1.044 0 1.044-1.014 2.088-2.09 2.088-.431 0-1.63.031-2.89.061-1.506.031-3.074.092-3.72.092-1.199 0-2.705 0-3.412.43-.677.399-4.12 2.487-4.919 2.978.153.461.553 1.658.553 2.211 0 .307-.031 1.965-.092 3.684-.031 1.658-.092 3.378-.092 3.685 0 .583-.369 4.175-.461 4.851l3.443 4.052-2.367 2.702-.123-.031c-.031 0-1.937-.276-3.413.43a3.529 3.529 0 0 1-.799.277c.43.491 1.107 1.381 1.844 2.026ZM124.2 216.484c.984.092 1.906-.062 2.306-.43.123-.123.215-.246.215-.399 0-.768.308-2.702.308-2.794.092-.369.553-2.027 1.445-2.027.584 0 2.029-.614 2.613-.859.584-.921 1.291-2.334 1.045-2.764-.43-.706-1.045-2.64-1.322-3.469l-.123-.368c-.246-.707-.461-1.474-.154-1.904.093-.123.246-.276.584-.276 1.076 0 1.599.614 2.06 1.504.431.86 1.599 1.873 2.398 1.873.215 0 .461-.031.707-.031.83-.061 1.66-.122 2.091.43.369.491 1.045.952 1.721.706.677-.276 1.23-.951 1.23-1.473v-2.272l-.338-1.873c-.676-.522-5.442-4.206-6.395-5.066-.922-.829-1.414-2.088-1.414-3.654 0-.337-.092-1.105-.215-2.057l-1.506-.276c-.123.031-.584.123-.892.368-.092.092-.215.215-.338.369-.307.368-.676.829-1.383 1.013-.093.031-.154.031-.246.031-.984 0-1.568-1.351-2.06-2.641-.308-.798-.523-.767-1.015-.645-.184.031-.399.093-.615.093-.891 0-1.66-.522-2.428-1.628l-.154-.215c-.492-.706-.492-.706-.891-.89l-.123-.061c-.492-.246-1.507.092-2.245.491-.676.368-1.322.706-1.967.307-.369-.215-1.23-.768-1.66-1.044-.246 1.289-.523 2.518-1.076 2.886-.646.43-.892.829-1.046 1.136-.245.461-1.229.522-2.244.522-.153 0-.369 0-.615-.031-.43-.03-.983-.061-1.168 0a.567.567 0 0 0-.092.461c.031.215.154.368.4.43.922.215 1.137 1.136.983 1.719-.03.092-.03.215-.03.399-.031.583-.062 1.474-.769 1.996-.369.276-.799.645-.861.982-.03.123.031.277.185.43a9.54 9.54 0 0 1 1.26 1.873c.246.522 1.015.583 1.445.583h.277c.061-.03.153-.276.307-.522l.123-.245c.4-.768.892-.983 1.138-1.013a.797.797 0 0 1 .768.245c.369.369.492 1.29.369 1.658-.061.154-.123.706.123 1.136a.794.794 0 0 0 .615.399c.215.031.43.062.584.092.676.092 1.015.154 1.23.768.246.706.522 1.105.861 1.167.461.092.953.706 1.014 1.258.031.4-.154.737-.553.921-.953.43-1.199.584-1.199.922 0 .46.399 1.197 1.229 1.75.677.46 1.015 1.166 1.015 2.149 0 .307.092 3.438.092 3.469 0 .031.092 2.211.584 3.07a10 10 0 0 1 .554 1.259c.123.338.215.614.338.737.184.184.799.461 1.137.553l.062.03.123.062c.03-.246.092-.614.369-.891.246-.368.676-.491 1.229-.429Z" fill="#FA0" stroke="#fff" stroke-width="1.5"/></svg>