<svg width="41" height="41" viewBox="0 0 41 41" fill="none" xmlns="http://www.w3.org/2000/svg">
<circle cx="20.5" cy="20.5" r="20.5" fill="#6CBBA9"/>
<path d="M15.8065 27.3479H12C11.4477 27.3479 11 26.9002 11 26.3479V19.261C11 18.7087 11.4477 18.261 12 18.261H15.8065C15.8894 18.261 15.9565 18.3281 15.9565 18.411V27.1979C15.9565 27.2808 15.8894 27.3479 15.8065 27.3479Z" stroke="white" stroke-linecap="round"/>
<path d="M15.9565 19.087L18.4912 14.1082C18.5627 13.9677 18.6 13.8122 18.6 13.6545V11C18.6 10.4477 19.0477 10 19.6 10H20.5652C21.6698 10 22.5652 10.8954 22.5652 12V17.7888" stroke="white" stroke-linecap="round"/>
<path d="M20.035 18.261H28.6625C29.3304 18.261 29.8106 18.9033 29.6216 19.5439L27.0439 28.283C26.9185 28.7082 26.5281 29.0001 26.0848 29.0001H20.4455C20.1825 29.0001 19.9301 28.8965 19.7429 28.7117L18.9676 27.9462C18.7805 27.7614 18.528 27.6577 18.265 27.6577H15.9565" stroke="white" stroke-linecap="round"/>
</svg>
