<svg width="32" height="32" viewBox="0 0 32 32" fill="none" xmlns="http://www.w3.org/2000/svg">
<path d="M11.4707 22.1765L11.4707 16.8824" stroke="#222222" stroke-linecap="round"/>
<path d="M20.2939 22.1765L20.2939 16.8824" stroke="#222222" stroke-linecap="round"/>
<path d="M0 8.05884H31.7647H29.5882C27.7026 8.05884 26.7598 8.05884 26.174 8.64462C25.5882 9.23041 25.5882 10.1732 25.5882 12.0588V27C25.5882 28.8856 25.5882 29.8284 25.0024 30.4142C24.4167 31 23.4739 31 21.5882 31H10.1765C8.29085 31 7.34804 31 6.76226 30.4142C6.17647 29.8284 6.17647 28.8856 6.17647 27V12.0588C6.17647 10.1732 6.17647 9.23041 5.59068 8.64462C5.0049 8.05884 4.06209 8.05884 2.17647 8.05884H0Z" stroke="#222222" stroke-linecap="round"/>
<path d="M11.4704 2.76513C11.4704 2.76513 12.3528 1 15.8822 1C19.4116 1 20.2939 2.76471 20.2939 2.76471" stroke="#222222" stroke-linecap="round"/>
</svg>
