<svg width="37" height="37" viewBox="0 0 37 37" fill="none" xmlns="http://www.w3.org/2000/svg">
<path d="M7.59861 29.4011C9.75467 31.5572 12.5017 33.0255 15.4922 33.6204C18.4827 34.2152 21.5825 33.9099 24.3995 32.7431C27.2166 31.5762 29.6243 29.6002 31.3183 27.065C33.0123 24.5297 33.9165 21.549 33.9165 18.4999C33.9165 15.4508 33.0123 12.4701 31.3183 9.93488C29.6243 7.39962 27.2166 5.42363 24.3995 4.25678C21.5825 3.08993 18.4827 2.78462 15.4922 3.37948C12.5017 3.97433 9.75467 5.44263 7.59861 7.59869" stroke="white" stroke-width="3"/>
<path d="M23.125 18.5001L24.2963 17.563L25.0459 18.5001L24.2963 19.4371L23.125 18.5001ZM4.625 20.0001C3.79657 20.0001 3.125 19.3285 3.125 18.5001C3.125 17.6717 3.79657 17.0001 4.625 17.0001V20.0001ZM18.1296 9.85471L24.2963 17.563L21.9537 19.4371L15.787 11.7288L18.1296 9.85471ZM24.2963 19.4371L18.1296 27.1455L15.787 25.2714L21.9537 17.563L24.2963 19.4371ZM23.125 20.0001H4.625V17.0001H23.125V20.0001Z" fill="white"/>
</svg>
