<svg width="71" height="80" viewBox="0 0 71 80" fill="none" xmlns="http://www.w3.org/2000/svg">
<path d="M34.4457 41.9504L5.05597 23.2541C3.86292 22.4952 3.26639 22.1157 3.26639 21.5667C3.26639 21.0176 3.86292 20.6381 5.05597 19.8792L34.4457 1.1829C34.9673 0.851098 35.228 0.685195 35.5192 0.685195C35.8103 0.685195 36.0711 0.851098 36.5927 1.18291L65.9823 19.8792C67.1754 20.6381 67.7719 21.0176 67.7719 21.5667C67.7719 22.1157 67.1754 22.4952 65.9823 23.2541L63.0245 25.1357L37.0049 41.6881L36.5927 41.9504C36.0711 42.2822 35.8103 42.4481 35.5192 42.4481C35.228 42.4481 34.9673 42.2822 34.4457 41.9504Z" fill="#EAEAEA"/>
<path d="M41.7418 18.2373L29.7036 25.498C29.4135 25.673 29.0528 25.6833 28.7532 25.5251C28.0881 25.174 28.0612 24.2312 28.7052 23.8427L40.7434 16.582C41.0336 16.407 41.3942 16.3968 41.6938 16.555C42.3589 16.9061 42.3858 17.8489 41.7418 18.2373Z" fill="white"/>
<path d="M37.8844 46.8915V75.8574C37.8844 77.4661 37.8844 78.2705 38.4031 78.5553C38.9218 78.8401 39.6005 78.4084 40.9579 77.5449L43.4947 75.931L69.5143 59.3787L70.0737 59.0228C70.5268 58.7346 70.7533 58.5905 70.8768 58.3657C71.0002 58.1409 71.0002 57.8724 71.0002 57.3354V28.3695C71.0002 26.7608 71.0002 25.9564 70.4815 25.6716C69.9628 25.3868 69.2841 25.8185 67.9267 26.682L38.8109 45.2041C38.3578 45.4923 38.1312 45.6364 38.0078 45.8612C37.8844 46.086 37.8844 46.3545 37.8844 46.8915Z" fill="#CBCBCB"/>
<path d="M33.4493 47.4196V73.3595C33.4493 76.0489 33.4493 77.3936 32.487 77.8346C31.5247 78.2757 30.2961 77.4941 27.8388 75.9309L1.81931 59.3786C1.09093 58.9152 0.726742 58.6835 0.530119 58.3432C0.333496 58.003 0.333496 57.6044 0.333496 56.8072V30.8672C0.333496 28.1778 0.333496 26.8331 1.29578 26.3921C2.25806 25.951 3.48668 26.7326 5.94391 28.2958L31.9634 44.8482C32.6918 45.3115 33.056 45.5432 33.2526 45.8835C33.4493 46.2238 33.4493 46.6224 33.4493 47.4196Z" fill="#9F9F9F"/>
</svg>
