<svg width="32" height="44" viewBox="0 0 32 44" fill="none" xmlns="http://www.w3.org/2000/svg">
<path d="M23.5 5.63574C26.5096 5.63574 28.0143 5.63574 29.0953 6.36574C29.5633 6.68176 29.965 7.08785 30.2777 7.56081C31 8.65333 31 10.1742 31 13.216V33.7908C31 37.8746 31 39.9166 29.7447 41.1852C28.4895 42.4539 26.4692 42.4539 22.4286 42.4539H9.57143C5.53082 42.4539 3.51051 42.4539 2.25526 41.1852C1 39.9166 1 37.8746 1 33.7908V13.216C1 10.1742 1 8.65333 1.72227 7.56081C2.03495 7.08785 2.43674 6.68176 2.9047 6.36574C3.98566 5.63574 5.49044 5.63574 8.5 5.63574" stroke="#707070" stroke-width="2"/>
<path d="M9.18164 5.63632C9.18164 3.37697 11.2167 1.54541 13.7271 1.54541H18.2725C20.7829 1.54541 22.818 3.37697 22.818 5.63632C22.818 7.89567 20.7829 9.72723 18.2725 9.72723H13.7271C11.2167 9.72723 9.18164 7.89567 9.18164 5.63632Z" stroke="#707070" stroke-width="2"/>
<path d="M9.18164 20.6357L22.818 20.6357" stroke="#707070" stroke-width="2" stroke-linecap="round"/>
<path d="M9.18164 28.8184L18.7271 28.8184" stroke="#707070" stroke-width="2" stroke-linecap="round"/>
</svg>
