<svg width="45" height="41" viewBox="0 0 45 41" fill="none" xmlns="http://www.w3.org/2000/svg">
<rect y="0.926758" width="45" height="40" rx="4" fill="#095644"/>
<path fill-rule="evenodd" clip-rule="evenodd" d="M20.0237 21.1615L13.5298 18.9968C11.1766 18.2124 10 17.8202 10 17.0995C10 16.3787 11.1766 15.9865 13.5298 15.2021L13.5298 15.2021L30.5362 9.53332C32.192 8.98139 33.0199 8.70542 33.4569 9.14244C33.8939 9.57945 33.6179 10.4073 33.066 12.0631L33.066 12.0631L33.066 12.0631L27.3972 29.0695C26.6128 31.4227 26.2206 32.5993 25.4999 32.5993C24.7791 32.5993 24.3869 31.4227 23.6025 29.0695L21.4379 22.5757L27.6788 16.3347C28.0693 15.9442 28.0693 15.311 27.6788 14.9205C27.2883 14.53 26.6551 14.53 26.2646 14.9205L20.0237 21.1615Z" fill="white"/>
</svg>
