<svg width="49" height="52" viewBox="0 0 49 52" fill="none" xmlns="http://www.w3.org/2000/svg">
<path d="M34.6668 11.0005H45.6002C46.4402 11.0005 46.8603 11.0005 47.1812 11.164C47.4634 11.3078 47.6929 11.5373 47.8367 11.8195C48.0002 12.1404 48.0002 12.5604 48.0002 13.4005V47.8005C48.0002 48.9206 48.0002 49.4806 47.7822 49.9085C47.5904 50.2848 47.2845 50.5908 46.9081 50.7825C46.4803 51.0005 45.9203 51.0005 44.8002 51.0005H37.8668C36.7467 51.0005 36.1867 51.0005 35.7588 50.7825C35.3825 50.5908 35.0766 50.2848 34.8848 49.9085C34.6668 49.4806 34.6668 48.9206 34.6668 47.8005V4.20049C34.6668 3.08038 34.6668 2.52033 34.4488 2.09251C34.2571 1.71618 33.9511 1.41022 33.5748 1.21848C33.147 1.00049 32.5869 1.00049 31.4668 1.00049H4.53349C3.41339 1.00049 2.85334 1.00049 2.42552 1.21848C2.04919 1.41022 1.74323 1.71618 1.55148 2.09251C1.3335 2.52033 1.3335 3.08038 1.3335 4.20049V47.8005C1.3335 48.9206 1.3335 49.4806 1.55148 49.9085C1.74323 50.2848 2.04919 50.5908 2.42552 50.7825C2.85334 51.0005 3.41339 51.0005 4.5335 51.0005H41.3335" stroke="#707070" stroke-width="2"/>
<path d="M26.4 7.66724H9.6C9.03995 7.66724 8.75992 7.66724 8.54601 7.77623C8.35785 7.8721 8.20487 8.02508 8.10899 8.21325C8 8.42716 8 8.70718 8 9.26724V16.0672C8 16.6273 8 16.9073 8.10899 17.1212C8.20487 17.3094 8.35785 17.4624 8.54601 17.5582C8.75992 17.6672 9.03995 17.6672 9.6 17.6672H26.4C26.9601 17.6672 27.2401 17.6672 27.454 17.5582C27.6422 17.4624 27.7951 17.3094 27.891 17.1212C28 16.9073 28 16.6273 28 16.0672V9.26724C28 8.70718 28 8.42716 27.891 8.21325C27.7951 8.02508 27.6422 7.8721 27.454 7.77623C27.2401 7.66724 26.9601 7.66724 26.4 7.66724Z" stroke="#707070" stroke-width="2"/>
<path d="M8 23.3337C7.44772 23.3337 7 23.7815 7 24.3337C7 24.886 7.44772 25.3337 8 25.3337V23.3337ZM28 25.3337C28.5523 25.3337 29 24.886 29 24.3337C29 23.7815 28.5523 23.3337 28 23.3337V25.3337ZM8 25.3337H28V23.3337H8V25.3337Z" fill="#707070"/>
<path d="M8 30.0005C7.44772 30.0005 7 30.4482 7 31.0005C7 31.5528 7.44772 32.0005 8 32.0005V30.0005ZM28 32.0005C28.5523 32.0005 29 31.5528 29 31.0005C29 30.4482 28.5523 30.0005 28 30.0005V32.0005ZM8 32.0005H28V30.0005H8V32.0005Z" fill="#707070"/>
<path d="M8 36.6672C7.44772 36.6672 7 37.115 7 37.6672C7 38.2195 7.44772 38.6672 8 38.6672V36.6672ZM28 38.6672C28.5523 38.6672 29 38.2195 29 37.6672C29 37.115 28.5523 36.6672 28 36.6672V38.6672ZM8 38.6672H28V36.6672H8V38.6672Z" fill="#707070"/>
<path d="M8 43.3337C7.44772 43.3337 7 43.7815 7 44.3337C7 44.886 7.44772 45.3337 8 45.3337V43.3337ZM21.3333 45.3337C21.8856 45.3337 22.3333 44.886 22.3333 44.3337C22.3333 43.7815 21.8856 43.3337 21.3333 43.3337V45.3337ZM8 45.3337H21.3333V43.3337H8V45.3337Z" fill="#707070"/>
</svg>
