<svg width="22" height="22" viewBox="0 0 22 22" fill="none" xmlns="http://www.w3.org/2000/svg">
<circle cx="10.9998" cy="8.77779" r="3.33333" stroke="#F3F3F3" stroke-linecap="round"/>
<circle cx="10.9998" cy="8.77779" r="3.33333" stroke="black" stroke-opacity="0.2" stroke-linecap="round"/>
<circle cx="11" cy="11" r="10" stroke="#F3F3F3"/>
<circle cx="11" cy="11" r="10" stroke="black" stroke-opacity="0.2"/>
<path d="M17.6668 18.451C17.2736 17.2698 16.4071 16.2259 15.2017 15.4814C13.9964 14.7369 12.5195 14.3334 11.0002 14.3334C9.48083 14.3334 8.00396 14.7369 6.79859 15.4814C5.59322 16.2259 4.72673 17.2697 4.3335 18.451" stroke="#F3F3F3" stroke-linecap="round"/>
<path d="M17.6668 18.451C17.2736 17.2698 16.4071 16.2259 15.2017 15.4814C13.9964 14.7369 12.5195 14.3334 11.0002 14.3334C9.48083 14.3334 8.00396 14.7369 6.79859 15.4814C5.59322 16.2259 4.72673 17.2697 4.3335 18.451" stroke="black" stroke-opacity="0.2" stroke-linecap="round"/>
</svg>
